<svg width="125" height="95" viewBox="0 0 125 95" fill="none" xmlns="http://www.w3.org/2000/svg">
<path d="M40.6987 2.23906C44.4591 -1.0423 48.4768 -0.717016 52.7519 3.2149C53.0092 3.45081 53.313 3.56877 53.6633 3.56877C75.6892 3.58307 97.7222 3.58664 119.762 3.57949C125.392 3.57949 126.861 13.2198 118.947 13.2305C97.3147 13.2377 75.682 13.2377 54.0494 13.2305C53.6848 13.2305 53.3845 13.3664 53.1486 13.638C44.6557 23.7073 31.3265 10.4317 40.6987 2.23906Z" fill="#EEEEEE"/>
<path d="M-33.057 15.418C-33.7541 10.9999 -32.3493 7.6328 -27.4701 7.62208C-7.97499 7.58633 11.5166 7.58275 31.0045 7.61134C31.3691 7.61134 31.5479 7.79722 31.5407 8.16897C31.4907 11.2573 32.3307 14.0704 34.0607 16.6083C34.3538 17.0372 34.2394 17.2517 33.7176 17.2517H-21.8082C-22.423 17.2517 -22.6839 17.5555 -22.591 18.1632C-19.5313 38.4876 -16.5001 58.9192 -13.4975 79.4581C-12.8327 84.0477 -9.11168 85.3238 -4.71508 85.3238C28.9993 85.3524 62.7172 85.356 96.4387 85.3345C100.61 85.3345 102.798 82.2247 103.409 78.1713C106.326 58.7834 109.232 39.3991 112.127 20.0183C112.184 19.6323 112.406 19.4357 112.792 19.4285L121.66 19.3213C121.91 19.3141 122.018 19.4321 121.982 19.6752C119.051 39.3061 116.127 58.9442 113.21 78.5895C111.376 90.9428 104.771 94.9856 92.782 94.9856C61.7056 94.9999 30.6328 95.0034 -0.436459 94.9963C-15.8353 94.9963 -21.5508 91.6935 -23.7706 76.6164C-26.7803 56.2062 -29.8758 35.8067 -33.057 15.418Z" fill="#EEEEEE"/>
<path d="M22.0828 42.4194H21.7397C19.1753 42.4194 17.0964 44.4983 17.0964 47.0627V68.5738C17.0964 71.1382 19.1753 73.217 21.7397 73.217H22.0828C24.6472 73.217 26.726 71.1382 26.726 68.5738V47.0627C26.726 44.4983 24.6472 42.4194 22.0828 42.4194Z" fill="#EEEEEE"/>
<path d="M45.9314 42.4194H45.5883C43.0239 42.4194 40.9451 44.4983 40.9451 47.0627V68.5738C40.9451 71.1382 43.0239 73.217 45.5883 73.217H45.9314C48.4958 73.217 50.5747 71.1382 50.5747 68.5738V47.0627C50.5747 44.4983 48.4958 42.4194 45.9314 42.4194Z" fill="#EEEEEE"/>
<path d="M69.7806 42.3984H69.4589C66.8886 42.3984 64.8049 44.4821 64.8049 47.0524V68.5635C64.8049 71.1338 66.8886 73.2175 69.4589 73.2175H69.7806C72.3509 73.2175 74.4346 71.1338 74.4346 68.5635V47.0524C74.4346 44.4821 72.3509 42.3984 69.7806 42.3984Z" fill="#EEEEEE"/>
</svg>
