<svg width="62" height="37" viewBox="0 0 62 37" fill="none" xmlns="http://www.w3.org/2000/svg">
<path d="M28.268 0.885523C29.7551 -0.412216 31.3441 -0.283571 33.0348 1.27145C33.1366 1.36475 33.2568 1.41141 33.3953 1.41141C42.1063 1.41706 50.8201 1.41847 59.5367 1.41564C61.7632 1.41564 62.3442 5.22828 59.2144 5.23252C50.6589 5.23535 42.1034 5.23535 33.548 5.23252C33.4038 5.23252 33.285 5.28624 33.1917 5.39368C29.8329 9.37596 24.5613 4.12563 28.268 0.885523Z" fill="#1F1F1F"/>
<path d="M0.25377 5.09777C-0.0218931 3.35049 0.533684 2.01883 2.46333 2.01459C10.1734 2.00045 17.8821 1.99904 25.5894 2.01035C25.7336 2.01035 25.8042 2.08386 25.8014 2.23088C25.7816 3.45228 26.1138 4.56483 26.798 5.56852C26.914 5.73816 26.8687 5.82298 26.6623 5.82298H4.70256C4.45941 5.82298 4.35621 5.94315 4.39297 6.18347C5.60306 14.2215 6.80185 22.302 7.98932 30.4249C8.25226 32.24 9.72388 32.7447 11.4627 32.7447C24.7963 32.756 38.1313 32.7574 51.4678 32.7489C53.1175 32.7489 53.9827 31.5191 54.2244 29.916C55.378 22.2483 56.5273 14.582 57.6724 6.91716C57.695 6.76448 57.7826 6.68673 57.9353 6.6839L61.4426 6.64149C61.5415 6.63866 61.5839 6.68531 61.5698 6.78144C60.4106 14.5453 59.2542 22.3119 58.1007 30.0814C57.3755 34.967 54.763 36.5658 50.0216 36.5658C37.7313 36.5715 25.4423 36.5729 13.1548 36.5701C7.06478 36.5701 4.80434 35.2638 3.92646 29.301C2.73616 21.229 1.51193 13.1613 0.25377 5.09777Z" fill="#1F1F1F"/>
</svg>
