<svg width="135" height="42" viewBox="0 0 135 42" fill="none" xmlns="http://www.w3.org/2000/svg">
<path d="M17.3885 41.056C2.36271 40.0975 -2.10303 26.6833 0.865651 13.9307C3.32542 3.36222 12.8294 -0.696393 22.8933 0.758262C30.9002 1.91746 35.8367 6.42845 37.7028 14.2912C37.7395 14.4439 37.6787 14.5231 37.5204 14.5287L35.3405 14.6178C35.1681 14.6234 35.062 14.5428 35.0225 14.376C33.3515 7.47455 28.8928 3.74109 21.6464 3.17562C16.2604 2.75153 9.97951 3.64637 6.44253 8.06122C2.49418 12.9977 2.30334 21.2294 3.59684 27.2728C5.74277 37.3239 14.5386 39.4317 23.4446 38.2273C29.7764 37.3706 33.4915 33.1975 34.9377 27.2644C34.951 27.2077 34.9834 27.1573 35.0296 27.1211C35.0757 27.0849 35.133 27.0652 35.1921 27.065H37.5204C37.6505 27.065 37.7013 27.1287 37.6731 27.2559C35.4678 37.5487 27.2445 41.6794 17.3885 41.056Z" fill="#DF1C26"/>
<path d="M43.5577 0.993892L41.0386 0.980702C40.9753 0.980371 40.9238 1.03137 40.9235 1.09461L40.9113 3.41863C40.911 3.48187 40.962 3.5334 41.0252 3.53373L43.5443 3.54692C43.6076 3.54726 43.6591 3.49626 43.6594 3.43302L43.6716 1.109C43.6719 1.04576 43.6209 0.994223 43.5577 0.993892Z" fill="#242021"/>
<path d="M100.291 0.987244H97.8398C97.7274 0.987244 97.6362 1.07838 97.6362 1.1908V40.4368C97.6362 40.5492 97.7274 40.6404 97.8398 40.6404H100.291C100.404 40.6404 100.495 40.5492 100.495 40.4368V1.1908C100.495 1.07838 100.404 0.987244 100.291 0.987244Z" fill="#DF1C26"/>
<path d="M77.602 40.9542C70.8291 40.263 66.0029 36.497 64.6416 29.7326C62.3217 18.2057 67.8477 8.46413 80.7191 8.99001C88.5394 9.30808 94.3114 13.0317 95.694 21.3228C95.7166 21.4641 95.6572 21.5362 95.5159 21.5391L93.1706 21.5899C93.0958 21.5907 93.0234 21.5643 92.9671 21.5158C92.9108 21.4674 92.8746 21.4002 92.8652 21.327C91.7456 13.0147 84.5784 11.3607 77.5087 12.0223C70.8376 12.6457 67.6654 16.3778 67.0631 22.8962C66.41 29.9532 68.4499 36.6751 76.3297 37.9898C83.9125 39.2536 91.3427 37.4215 92.9119 28.7487C92.9486 28.531 93.0787 28.4236 93.3021 28.4264L95.5159 28.4518C95.6233 28.4518 95.6699 28.5056 95.6558 28.613C94.2436 38.3036 86.6225 41.8745 77.602 40.9542Z" fill="#DF1C26"/>
<path d="M105.715 25.2542C105.749 31.2339 107.9 36.4546 114.316 37.8159C121.797 39.402 130.584 37.6802 131.64 28.5664C131.648 28.4943 131.683 28.4281 131.738 28.3814C131.794 28.3347 131.865 28.3114 131.937 28.3161L134.202 28.4603C134.352 28.4688 134.415 28.5466 134.393 28.6936C132.968 38.5114 125.075 41.8236 116.191 41.0094C110.198 40.458 105.656 37.0356 103.841 31.2933C101.92 25.2245 102.738 16.3184 108.23 12.1071C114.142 7.57352 125.377 7.8916 130.652 13.3413C133.727 16.5135 134.495 20.4746 134.728 24.8428C134.73 24.8694 134.726 24.8962 134.717 24.9213C134.708 24.9465 134.694 24.9695 134.675 24.989C134.657 25.0085 134.635 25.024 134.611 25.0346C134.586 25.0452 134.56 25.0506 134.533 25.0506H105.915C105.782 25.0506 105.715 25.1184 105.715 25.2542ZM105.881 22.506H131.717C131.718 22.506 131.719 22.5055 131.72 22.5048C131.721 22.504 131.721 22.5029 131.721 22.5017V22.4848C131.721 21.0852 131.428 19.6993 130.859 18.4063C130.29 17.1133 129.456 15.9384 128.405 14.9488C127.353 13.9591 126.105 13.1741 124.731 12.6385C123.357 12.1029 121.885 11.8272 120.398 11.8272H117.2C114.197 11.8272 111.317 12.9501 109.193 14.9488C107.07 16.9474 105.877 19.6582 105.877 22.4848V22.5017C105.877 22.5029 105.877 22.504 105.878 22.5048C105.879 22.5055 105.88 22.506 105.881 22.506Z" fill="#DF1C26"/>
<path d="M43.5552 9.47345H41.0276C40.9643 9.47345 40.9131 9.52472 40.9131 9.58796V40.5386C40.9131 40.6018 40.9643 40.6531 41.0276 40.6531H43.5552C43.6185 40.6531 43.6697 40.6018 43.6697 40.5386V9.58796C43.6697 9.52472 43.6185 9.47345 43.5552 9.47345Z" fill="#DF1C26"/>
<path d="M49.5479 14.7662C49.5488 14.7892 49.5568 14.8115 49.5707 14.83C49.5846 14.8485 49.6037 14.8622 49.6253 14.8693C49.6469 14.8763 49.6698 14.8763 49.691 14.8692C49.7121 14.8621 49.7303 14.8483 49.743 14.8298C53.7126 9.39286 59.035 9.48192 65.1674 9.56674C65.3088 9.56674 65.3823 9.63742 65.388 9.77879L65.4473 11.8781C65.4502 12.0307 65.3766 12.1043 65.2268 12.0986C61.8793 11.9629 59.5651 12.0406 58.2843 12.3319C51.9101 13.7696 49.8448 18.8757 49.6751 24.9742C49.5281 30.1171 49.4702 35.2642 49.5013 40.4156C49.5013 40.5626 49.4278 40.6361 49.2807 40.6361H47.0627C46.8507 40.6361 46.7446 40.5301 46.7446 40.3181V9.78303C46.7446 9.64449 46.8153 9.57381 46.9567 9.57098L49.2638 9.56674C49.408 9.56674 49.4815 9.63884 49.4843 9.78303L49.5479 14.7662Z" fill="#DF1C26"/>
</svg>
