<svg width="16" height="17" viewBox="0 0 16 17" fill="none" xmlns="http://www.w3.org/2000/svg">
<path fill-rule="evenodd" clip-rule="evenodd" d="M8.88889 8.22214C8.88889 7.73123 8.49093 7.33325 8 7.33325C7.50907 7.33325 7.11111 7.73123 7.11111 8.22214V7.7777H0.888889C0.397973 7.7777 0 8.17565 0 8.66659C0 9.15752 0.397973 9.55547 0.888889 9.55547H7.11111V9.11103C7.11111 9.60196 7.50907 9.99992 8 9.99992C8.49093 9.99992 8.88889 9.60196 8.88889 9.11103V9.55547H15.1111C15.602 9.55547 16 9.15752 16 8.66659C16 8.17565 15.602 7.7777 15.1111 7.7777H8.88889V8.22214Z" fill="#1F1F1F"/>
</svg>
