<svg width="48" height="32" viewBox="0 0 48 32" fill="none" xmlns="http://www.w3.org/2000/svg">
<g clip-path="url(#clip0_1_3746)">
<path d="M0 0H48V32H0V0Z" fill="black"/>
<path d="M0 0H48V21.3333H0V0Z" fill="white"/>
<path d="M0 0H48V10.6667H0V0Z" fill="#CE1126"/>
<path d="M24.0427 16.1281L27.6954 19.5189L27.4354 13.3606C27.3972 12.4272 26.5861 12.6414 25.9969 12.978C25.4001 13.3606 24.7192 13.3606 23.9998 13.108C23.2806 13.3606 22.5996 13.3606 22.0028 12.978C21.4137 12.6414 20.6027 12.4272 20.5644 13.3606L20.3042 19.5189L24.0427 16.1281Z" fill="white" stroke="#C09300" stroke-width="0.0677524" stroke-linejoin="round"/>
<path d="M20.9847 13.1462L20.7322 19.1366L20.3037 19.5189L20.5639 13.3605C20.6863 13.2764 20.9006 13.1463 20.9847 13.1463V13.1462ZM21.4978 13.575L21.2835 18.586L20.8552 19.0244L21.1153 13.2382C21.1995 13.3224 21.452 13.5289 21.4978 13.5748L21.4978 13.575ZM21.9645 13.9574L21.7962 18.1367L21.4519 18.4733L21.6662 13.705C21.7502 13.7891 21.9185 13.9116 21.9645 13.9574ZM22.4695 14.1718L22.3012 17.7338L21.9645 18.0069L22.1328 14.0418C22.217 14.08 22.3853 14.1718 22.4695 14.1718ZM22.9362 14.1718L22.8137 17.1402L22.4694 17.4769L22.5995 14.2101C22.6835 14.2101 22.8978 14.2101 22.9362 14.1718Z" fill="#C09300"/>
<path d="M27.0146 13.1462L27.267 19.1366L27.6956 19.5189L27.4354 13.3605C27.313 13.2764 27.0987 13.1463 27.0146 13.1463V13.1462ZM26.5015 13.575L26.7157 18.586L27.1441 19.0244L26.884 13.2382C26.7998 13.3224 26.5472 13.5289 26.5015 13.5748L26.5015 13.575ZM26.0348 13.9574L26.2031 18.1367L26.5473 18.4733L26.3331 13.705C26.2491 13.7891 26.0808 13.9116 26.0348 13.9574ZM25.5298 14.1718L25.6981 17.7338L26.0348 18.0069L25.8665 14.0418C25.7822 14.08 25.6139 14.1718 25.5298 14.1718ZM25.0631 14.1718L25.1856 17.1402L25.5299 17.4769L25.3997 14.2101C25.3157 14.2101 25.1014 14.2101 25.0631 14.1718Z" fill="#C09300"/>
<path d="M24.1682 16.8032L24.6809 19.1368L24.5124 19.3051L24.3365 19.175L24.0457 17.0941L24.1682 19.175L23.9998 19.3892L23.8315 19.175L23.9539 17.0941L23.6632 19.175L23.4871 19.3051L23.3188 19.1368L23.8314 16.8032L24.1682 16.8032Z" fill="#C09300" stroke="#C09300" stroke-width="0.0572725"/>
<path d="M22.8518 15.7783L21.8342 19.3893L23.2345 19.6035L23.8312 16.8876L22.8518 15.7783L22.8518 15.7783Z" fill="white" stroke="#C09300" stroke-width="0.0634137" stroke-linejoin="round"/>
<path d="M22.5151 17.0104L22.6376 17.3087L23.2992 16.6768" stroke="#C09300" stroke-width="0.0677275" stroke-linejoin="round"/>
<path d="M22.9734 16.2627L23.1118 17.5611L23.5326 17.0103M23.3643 17.2243L23.5942 18.0176M23.6843 17.7261L23.2194 18.4323M23.3644 19.1372L23.2156 18.4333L23.0857 17.7174L22.7742 18.1392L22.6376 17.6529L22.2016 18.1001L22.4233 18.9134L22.7293 18.4102L22.8976 18.9229L23.2118 18.4343M22.1323 19.3053L22.415 18.9084L22.5991 19.5194L22.8516 19.091L23.02 19.6037" stroke="#C09300" stroke-width="0.0677275" stroke-linejoin="round"/>
<path d="M25.1474 15.7783L26.165 19.3893L24.7648 19.6035L24.1681 16.8876L25.1474 15.7783L25.1474 15.7783Z" fill="white" stroke="#C09300" stroke-width="0.0634137" stroke-linejoin="round"/>
<path d="M25.4841 17.0104L25.3617 17.3087L24.7001 16.6768" stroke="#C09300" stroke-width="0.0677275" stroke-linejoin="round"/>
<path d="M25.0259 16.2627L24.8874 17.5611L24.4666 17.0103M24.6349 17.2243L24.4051 18.0176M24.315 17.7261L24.7799 18.4323M24.6349 19.1372L24.7837 18.4333L24.9136 17.7174L25.2251 18.1392L25.3617 17.6529L25.7977 18.1001L25.5759 18.9134L25.2699 18.4102L25.1016 18.9229L24.7875 18.4343M25.8669 19.3053L25.5843 18.9084L25.4001 19.5194L25.1477 19.091L24.9793 19.6037" stroke="#C09300" stroke-width="0.0677275" stroke-linejoin="round"/>
<path d="M23.9996 21.0033C25.0632 21.0033 26.0808 20.9192 26.6776 20.7508C26.9301 20.7051 26.9301 20.575 26.9301 20.4066C27.1827 20.3224 27.0525 20.0241 27.2285 20.0241C27.0525 20.0701 27.0143 19.7258 26.8001 19.7718C26.8001 19.4733 26.5016 19.4351 26.2491 19.5191C25.7441 19.6875 24.8489 19.7258 23.9995 19.7258C23.1503 19.6875 22.2626 19.6875 21.75 19.5191C21.4975 19.4351 21.1992 19.4733 21.1992 19.7718C20.9849 19.7258 20.9467 20.0702 20.7708 20.0242C20.9467 20.0242 20.8166 20.3224 21.0691 20.4066C21.0691 20.575 21.0691 20.7051 21.3293 20.7508C21.9183 20.9192 22.9361 21.0033 23.9995 21.0033H23.9996Z" fill="white" stroke="#C09300" stroke-width="0.126827" stroke-linejoin="round"/>
<path d="M22.5536 19.3889C22.8979 19.4349 23.2805 19.4731 23.579 19.4349C23.7472 19.4349 23.8696 19.7256 23.533 19.7716C23.2347 19.8097 22.7679 19.7716 22.5154 19.7256C22.3011 19.6873 21.8344 19.6032 21.536 19.5189C21.2376 19.389 21.4519 19.1366 21.6201 19.1748C21.8803 19.2589 22.217 19.3431 22.5537 19.389L22.5536 19.3889ZM25.4459 19.3889C25.1015 19.4349 24.7191 19.4731 24.4282 19.4349C24.2522 19.4349 24.1298 19.7256 24.4665 19.7716C24.7649 19.8097 25.2317 19.7716 25.484 19.7256C25.6983 19.6873 26.165 19.6032 26.4634 19.5189C26.7619 19.389 26.5477 19.1366 26.3793 19.1748C26.1191 19.2589 25.7825 19.3431 25.4459 19.3889Z" fill="white" stroke="#C09300" stroke-width="0.0677275" stroke-linejoin="round"/>
<path d="M21.4977 19.2211C21.2376 19.1751 21.1152 19.4734 21.1995 19.6417C21.2377 19.5575 21.4137 19.5575 21.452 19.4734C21.4977 19.3434 21.4137 19.3434 21.4977 19.2211ZM22.5153 20.0035C22.5153 19.8353 22.6836 19.856 22.6836 19.6876C22.6836 19.6035 22.6378 19.4734 22.5536 19.4734C22.4695 19.4734 22.3852 19.5575 22.3852 19.6417C22.3469 19.81 22.5153 19.8353 22.5153 20.0035ZM23.7265 19.5192C23.9788 19.5192 23.9538 19.8559 23.8314 20.0242C23.8314 19.9018 23.6172 19.8559 23.6172 19.7719C23.6172 19.6417 23.8106 19.6417 23.7265 19.5192ZM26.5015 19.2211C26.7616 19.1751 26.8841 19.4734 26.7999 19.6417C26.7616 19.5575 26.5856 19.5575 26.5474 19.4734C26.5015 19.3434 26.5857 19.3434 26.5015 19.2211ZM25.4839 20.0035C25.4839 19.8353 25.3157 19.856 25.3157 19.6876C25.3157 19.6035 25.3615 19.4734 25.4457 19.4734C25.5298 19.4734 25.6141 19.5575 25.6141 19.6417C25.6523 19.81 25.4839 19.8353 25.4839 20.0035ZM24.2727 19.5192C24.0203 19.5192 24.0453 19.8559 24.1677 20.0242C24.1677 19.9018 24.3819 19.8559 24.3819 19.7719C24.382 19.6417 24.1885 19.6417 24.2727 19.5192Z" fill="white" stroke="#C09300" stroke-width="0.0677275" stroke-linejoin="round"/>
<path d="M21.582 19.3053C21.6663 19.3053 21.7963 19.3436 21.8346 19.3894L21.5818 19.3052L21.582 19.3053ZM22.0023 19.4355C22.0483 19.4355 22.2166 19.4737 22.3007 19.5195L22.0021 19.4352L22.0023 19.4355ZM23.533 19.6035C23.4488 19.6035 23.2805 19.6035 23.2347 19.6416L23.5328 19.6032L23.533 19.6035ZM23.0663 19.6035C23.0205 19.5575 22.8521 19.5575 22.768 19.6035H23.0661H23.0663ZM26.4178 19.3053C26.3336 19.3053 26.2111 19.3436 26.1652 19.3894L26.4178 19.3053ZM25.997 19.4355C25.9511 19.4355 25.7827 19.4737 25.6985 19.5195L25.9972 19.4352L25.997 19.4355ZM24.4663 19.6035C24.5505 19.6035 24.7188 19.6035 24.7647 19.6416L24.466 19.6032L24.4663 19.6035ZM24.933 19.6035C24.9788 19.5575 25.1473 19.5575 25.2314 19.6035H24.9327H24.933Z" fill="white" stroke="#C09300" stroke-width="0.0475137" stroke-linejoin="round"/>
<path d="M21.5111 19.9778C21.4826 19.9723 21.4677 19.9498 21.4748 19.9231C21.4836 19.8906 21.5096 19.872 21.5342 19.8807C21.5498 19.8863 21.5784 19.9151 21.5785 19.9255C21.5787 19.9374 21.5636 19.9656 21.557 19.9657C21.5542 19.9657 21.5499 19.9682 21.5474 19.9711C21.542 19.9774 21.5253 19.9805 21.5111 19.9778ZM24.4407 20.1868C24.4301 20.1829 24.4132 20.1592 24.4132 20.1482C24.4133 20.1276 24.4438 20.0939 24.4628 20.0938C24.4721 20.0937 24.4977 20.107 24.5072 20.1169C24.5246 20.135 24.5208 20.1645 24.499 20.1813C24.4883 20.1896 24.4563 20.1926 24.4407 20.1868L24.4407 20.1868ZM24.4599 20.3191C24.4375 20.3115 24.4293 20.3005 24.4274 20.2757C24.4256 20.2498 24.4281 20.2458 24.4554 20.2309L24.4749 20.2202L24.4934 20.2285C24.519 20.2399 24.5304 20.2522 24.5313 20.2694C24.5323 20.2879 24.5185 20.3069 24.4971 20.3165C24.4784 20.3249 24.4773 20.325 24.4599 20.3191ZM21.7463 19.7383C21.7278 19.7377 21.7025 19.7547 21.688 19.7633C21.6533 19.7714 21.613 19.7927 21.5796 19.77C21.5467 19.7598 21.5029 19.7678 21.4979 19.8083C21.5064 19.8431 21.5551 19.8629 21.5846 19.84C21.6065 19.8113 21.6663 19.7945 21.6729 19.8433C21.6486 19.8802 21.6514 19.9291 21.6313 19.9683C21.628 19.9927 21.6179 20.0159 21.6046 20.0366C21.58 20.0391 21.5538 20.0362 21.533 20.0516C21.4996 20.0534 21.4655 20.07 21.4463 20.0983C21.4248 20.1291 21.4042 20.1604 21.3979 20.1983C21.4037 20.237 21.4479 20.248 21.4813 20.25C21.5168 20.2598 21.5524 20.2726 21.588 20.2833C21.6458 20.2963 21.7001 20.3172 21.758 20.33C21.8425 20.3554 21.9312 20.3671 22.0163 20.39C22.0252 20.3929 22.0336 20.3955 22.043 20.3966C22.0783 20.404 22.0967 20.3655 22.0996 20.3366C22.1171 20.2748 22.1305 20.2119 22.1479 20.15C22.1599 20.1251 22.1744 20.069 22.1263 20.0816C22.0988 20.0981 22.0755 20.1229 22.0413 20.125C21.9947 20.1277 22.0213 20.1754 22.0396 20.195C22.0437 20.2263 22.0338 20.2637 22.013 20.2883C21.9852 20.3059 21.9505 20.2853 21.9213 20.2783C21.8906 20.2788 21.8294 20.2632 21.858 20.2216C21.8681 20.1909 21.869 20.1572 21.8813 20.1266C21.8969 20.0939 21.8992 20.0581 21.9063 20.0233C21.887 19.9818 21.8541 20.0369 21.828 20.0416C21.8099 20.0541 21.7423 20.0595 21.7779 20.0916C21.8086 20.1149 21.7851 20.1555 21.7796 20.185C21.7776 20.226 21.7349 20.2358 21.7013 20.2266C21.6678 20.225 21.6212 20.2001 21.6496 20.1633C21.6561 20.1326 21.6668 20.1025 21.6729 20.0716L21.7096 19.9616C21.7154 19.9286 21.7273 19.8972 21.7429 19.8683C21.7439 19.8317 21.7684 19.8003 21.7679 19.7633C21.7655 19.7452 21.7574 19.7386 21.7463 19.7383ZM21.5546 20.125C21.559 20.1242 21.5621 20.1249 21.5663 20.1266C21.5796 20.1323 21.58 20.1431 21.5663 20.155C21.5603 20.1601 21.5535 20.1651 21.5513 20.165C21.5263 20.1628 21.519 20.1591 21.518 20.15C21.517 20.1419 21.5196 20.1396 21.5363 20.1316C21.5446 20.1277 21.5503 20.1257 21.5546 20.125ZM21.4994 20.3927C21.4729 20.3678 21.4772 20.3497 21.5163 20.3205C21.533 20.308 21.5432 20.3095 21.5623 20.3269C21.5918 20.3538 21.593 20.3708 21.5669 20.3938C21.5541 20.4052 21.5485 20.4076 21.5335 20.4077C21.5179 20.4079 21.5134 20.4059 21.4994 20.3927ZM21.662 20.4418C21.6559 20.4403 21.6502 20.4376 21.6452 20.4339C21.6402 20.4301 21.636 20.4254 21.6329 20.4199C21.6298 20.4145 21.6278 20.4085 21.6271 20.4023C21.6264 20.396 21.627 20.3897 21.6288 20.3838C21.6357 20.3606 21.6396 20.3583 21.6736 20.3579C21.7118 20.3576 21.7192 20.364 21.7195 20.3975C21.7197 20.4164 21.7183 20.4208 21.7089 20.4295C21.6978 20.4398 21.6766 20.4454 21.662 20.4418ZM26.4145 20.446C26.4024 20.436 26.4 20.4314 26.3999 20.4186C26.3997 20.3967 26.4123 20.3806 26.4396 20.3682C26.476 20.3518 26.4908 20.354 26.5045 20.3781C26.5228 20.4102 26.5219 20.4233 26.5001 20.4449C26.488 20.4568 26.4858 20.4575 26.4582 20.4578C26.4311 20.458 26.428 20.4573 26.4145 20.446ZM21.878 20.5074C21.8586 20.5022 21.8486 20.4876 21.8483 20.4643C21.8481 20.4465 21.8494 20.4437 21.8618 20.4339C21.8699 20.4276 21.8826 20.4222 21.8927 20.4209C21.9069 20.4189 21.9121 20.4201 21.9236 20.4282C21.9529 20.4488 21.9592 20.4693 21.9422 20.4891C21.9241 20.5102 21.9069 20.5151 21.878 20.5074ZM23.0471 20.5596C23.0428 20.5543 23.0333 20.5511 23.0323 20.5443C23.034 20.5147 23.0354 20.4848 23.0448 20.4564C23.05 20.4285 23.0455 20.3994 23.0552 20.3722C23.0652 20.3228 23.0652 20.2718 23.0766 20.2227C23.0772 20.1974 23.0796 20.1721 23.0869 20.1477C23.0953 20.1092 23.0876 20.069 23.099 20.031C23.0978 20.0167 23.1142 19.9785 23.1286 20.0011C23.1496 20.0319 23.1773 20.0569 23.2044 20.0819C23.2278 20.0954 23.2063 20.1153 23.1902 20.1219C23.1681 20.1307 23.1627 20.1551 23.1642 20.1764C23.1611 20.1986 23.1523 20.2195 23.1514 20.242C23.1467 20.2752 23.1476 20.309 23.1433 20.3421C23.1336 20.3746 23.1373 20.4093 23.1341 20.4428C23.1345 20.4641 23.1244 20.4834 23.1258 20.5047C23.1232 20.5263 23.1222 20.5524 23.1041 20.5672C23.0865 20.5761 23.0612 20.5745 23.0471 20.5596H23.0471ZM24.6311 20.037C24.6054 20.0564 24.5824 20.0794 24.5594 20.102C24.5278 20.1259 24.5854 20.1398 24.5927 20.1603C24.6011 20.1916 24.6006 20.2249 24.6027 20.257C24.6123 20.2864 24.6165 20.3177 24.6144 20.3486C24.6116 20.3818 24.5684 20.3748 24.5494 20.3936C24.5232 20.4047 24.5127 20.4305 24.4927 20.4486C24.4796 20.4744 24.4761 20.506 24.4744 20.5353C24.4763 20.5592 24.4583 20.5859 24.4744 20.607C24.4765 20.6099 24.479 20.614 24.4811 20.617C24.4865 20.6247 24.4994 20.6185 24.5077 20.6203C24.5346 20.6188 24.5626 20.6228 24.5877 20.612C24.6523 20.6008 24.7174 20.5999 24.7827 20.597C24.8227 20.5982 24.8612 20.5843 24.9011 20.5853C24.9324 20.5922 24.9465 20.5583 24.9461 20.5336C24.9284 20.4988 24.9437 20.4574 24.9294 20.422C24.9169 20.3861 24.9218 20.3458 24.9161 20.3086C24.9153 20.2794 24.8782 20.2685 24.8594 20.2903C24.8412 20.3087 24.8118 20.3124 24.7977 20.3353C24.7819 20.3674 24.8312 20.3675 24.8394 20.392C24.8488 20.4167 24.8457 20.4443 24.8477 20.4703C24.8538 20.5019 24.8195 20.5037 24.7977 20.507C24.7691 20.5177 24.7289 20.5249 24.7127 20.4903C24.7026 20.4647 24.704 20.4374 24.7011 20.4103C24.7004 20.3627 24.6889 20.316 24.6861 20.2686C24.6833 20.2101 24.6732 20.152 24.6694 20.0936C24.6689 20.0693 24.6656 20.0297 24.6311 20.037V20.037ZM24.5978 20.477L24.6144 20.4786L24.6161 20.4986L24.6177 20.5186L24.5961 20.5253C24.589 20.5274 24.5817 20.5291 24.5744 20.5303C24.571 20.5282 24.5676 20.526 24.5644 20.5236C24.5527 20.5152 24.5557 20.5031 24.5711 20.487C24.5797 20.4779 24.5838 20.4761 24.5977 20.477H24.5978ZM22.9996 19.982C22.9794 19.9892 22.9536 20.019 22.933 20.0187C22.886 20.022 22.8926 20.0677 22.9263 20.0837C22.9307 20.0976 22.9266 20.115 22.9279 20.1304C22.9345 20.1725 22.9079 20.2064 22.913 20.2487C22.9106 20.2951 22.8966 20.3403 22.8946 20.387C22.8814 20.4352 22.8813 20.4847 22.8729 20.5337C22.8674 20.5776 22.8356 20.5621 22.8079 20.5504C22.8077 20.5313 22.8065 20.5127 22.8063 20.4937C22.8178 20.4501 22.7828 20.4374 22.7479 20.432C22.7114 20.4355 22.6934 20.4041 22.7013 20.372C22.717 20.3533 22.7565 20.3585 22.7813 20.3554C22.8336 20.3662 22.8315 20.2961 22.8046 20.272C22.7862 20.2381 22.7407 20.2236 22.7279 20.1887C22.733 20.1425 22.7024 20.0963 22.6646 20.0737C22.6066 20.0696 22.5627 20.1197 22.5413 20.1687C22.5171 20.1757 22.4931 20.1829 22.4696 20.192C22.4318 20.2015 22.3779 20.2671 22.4296 20.292C22.4586 20.3 22.547 20.3202 22.5079 20.3604C22.486 20.3981 22.4439 20.3987 22.4063 20.3887C22.3677 20.3887 22.3247 20.3699 22.3263 20.3254C22.3184 20.2854 22.3197 20.2423 22.3013 20.2054C22.2934 20.1606 22.2426 20.1711 22.2396 20.212C22.2005 20.2405 22.2057 20.2866 22.233 20.3204C22.25 20.3592 22.2331 20.4045 22.2163 20.4404C22.2061 20.487 22.1546 20.4886 22.118 20.5037C22.1 20.5107 22.0311 20.4995 22.0563 20.5387C22.0964 20.5529 22.1444 20.5656 22.1863 20.5554C22.2302 20.5499 22.2683 20.5199 22.2896 20.482C22.3191 20.4522 22.3697 20.4678 22.408 20.467C22.4492 20.4669 22.4913 20.496 22.5313 20.477C22.5429 20.4469 22.5965 20.3973 22.613 20.4487C22.6101 20.4947 22.6508 20.5194 22.693 20.5137C22.739 20.5111 22.722 20.5463 22.7213 20.5737C22.7243 20.6235 22.7565 20.6497 22.7979 20.6704C22.8121 20.6742 22.827 20.6729 22.8413 20.6704C22.8812 20.6578 22.9241 20.64 22.9363 20.5954C22.9525 20.5591 22.9529 20.518 22.9646 20.4804C22.9741 20.4201 22.9863 20.3598 22.988 20.2987C23.0027 20.2433 22.9984 20.1848 23.0096 20.1287C23.0167 20.087 23.0219 20.0453 23.0263 20.0037C23.0214 19.9815 23.0118 19.9777 22.9996 19.982ZM22.638 20.2037C22.646 20.2047 22.6505 20.2146 22.6513 20.232C22.6521 20.2514 22.6623 20.2673 22.6746 20.2704C22.6843 20.2728 22.6835 20.2831 22.673 20.2904C22.6668 20.2946 22.6558 20.2971 22.6363 20.297C22.6055 20.2969 22.5864 20.2889 22.5696 20.272L22.5596 20.262L22.5746 20.252C22.5851 20.2437 22.5952 20.2348 22.6046 20.2254C22.6198 20.2099 22.6299 20.2027 22.638 20.2037ZM26.1596 19.7836C26.1294 19.785 26.099 19.7899 26.0713 19.797C26.0158 19.7935 25.988 19.8517 26.0413 19.8803C26.0734 19.9621 26.1234 19.8634 26.1746 19.8703C26.2513 19.8852 26.2578 19.968 26.2696 20.0303C26.2739 20.092 26.2917 20.152 26.3096 20.2103C26.3609 20.2673 26.2712 20.3031 26.2329 20.2586C26.2003 20.2232 26.1305 20.1797 26.0913 20.2286C26.0431 20.249 26.0411 20.3134 26.0013 20.332C25.9368 20.3516 25.9287 20.2723 25.8946 20.2386C25.8633 20.1947 25.8034 20.1908 25.7546 20.1753C25.7317 20.129 25.7437 20.0502 25.6963 20.0186C25.6565 20.0349 25.5836 20.1094 25.6446 20.1436C25.7042 20.1949 25.6186 20.2183 25.5913 20.2536C25.5523 20.2971 25.546 20.3569 25.5396 20.412C25.4725 20.4491 25.4594 20.3699 25.4513 20.3203C25.4461 20.261 25.396 20.2784 25.3613 20.3003C25.3105 20.3209 25.2851 20.3691 25.2496 20.407C25.2454 20.4415 25.2516 20.4793 25.2513 20.5153C25.2628 20.5586 25.3154 20.5382 25.3479 20.5353C25.4001 20.5135 25.4215 20.5688 25.3796 20.6003C25.3512 20.6364 25.2612 20.6175 25.2696 20.6753C25.2986 20.6787 25.3288 20.6776 25.3579 20.6753C25.4161 20.6594 25.4785 20.6184 25.4846 20.5536C25.4923 20.4972 25.5735 20.5075 25.6179 20.4953C25.6734 20.4793 25.7403 20.4752 25.7529 20.5453C25.7908 20.585 25.8729 20.6298 25.9146 20.5753C25.957 20.5494 25.9773 20.5039 25.9746 20.4553C25.966 20.4134 26.0423 20.4119 26.0613 20.4353C26.0891 20.481 26.176 20.4675 26.2179 20.442C26.2625 20.409 26.2722 20.351 26.3363 20.3503C26.4313 20.3218 26.5301 20.3054 26.6229 20.2703C26.6981 20.2539 26.6117 20.2064 26.5929 20.1786C26.5357 20.1503 26.4858 20.2662 26.4213 20.2086C26.3714 20.1704 26.3748 20.0979 26.3563 20.0419C26.3436 19.9696 26.3468 19.8861 26.2946 19.8286C26.2587 19.7905 26.21 19.7813 26.1596 19.7836H26.1596ZM25.7963 20.2886C25.803 20.2885 25.8106 20.2918 25.8229 20.2986C25.8463 20.3115 25.863 20.3329 25.8629 20.3503C25.8629 20.3616 25.86 20.3624 25.843 20.3703C25.8324 20.3751 25.8205 20.3804 25.8163 20.3803C25.8066 20.3802 25.783 20.3613 25.783 20.3536C25.7829 20.3505 25.7798 20.3383 25.7763 20.3286C25.77 20.3115 25.771 20.3118 25.7796 20.3003C25.7851 20.293 25.7896 20.2888 25.7963 20.2886ZM26.1446 20.307C26.1645 20.3057 26.1763 20.3119 26.1846 20.327C26.1943 20.3445 26.1877 20.358 26.1629 20.3686C26.1521 20.3733 26.1412 20.3771 26.1396 20.377C26.138 20.3768 26.129 20.3715 26.1196 20.3653C26.1052 20.3558 26.1031 20.3512 26.1029 20.3403C26.1028 20.3235 26.1216 20.3085 26.1446 20.307H26.1446ZM25.6679 20.312C25.6738 20.3111 25.6791 20.3141 25.6863 20.3203C25.6959 20.3285 25.6989 20.3352 25.7013 20.352C25.7029 20.3636 25.7027 20.3787 25.7013 20.3853C25.6987 20.3973 25.6984 20.3968 25.6713 20.397C25.6371 20.3973 25.634 20.3936 25.6346 20.362C25.635 20.3419 25.6352 20.3365 25.6463 20.3253C25.6548 20.3166 25.6621 20.3129 25.6679 20.312ZM25.3746 20.3886C25.3853 20.3911 25.3953 20.3992 25.3979 20.412C25.4014 20.4289 25.3984 20.4366 25.3846 20.4436C25.3728 20.4497 25.3455 20.4517 25.3379 20.447C25.3355 20.4454 25.3305 20.4415 25.3279 20.437C25.3243 20.4305 25.325 20.4274 25.3296 20.4236C25.3328 20.421 25.3363 20.4172 25.3363 20.4153C25.3363 20.4134 25.3399 20.4066 25.3446 20.4003C25.3524 20.3899 25.364 20.3861 25.3746 20.3886ZM25.8679 20.452C25.8774 20.4519 25.8855 20.4552 25.8913 20.4603C25.9012 20.469 25.9008 20.4816 25.8896 20.4903C25.8824 20.4959 25.8431 20.4953 25.8296 20.4903C25.8236 20.488 25.8213 20.485 25.8213 20.4786C25.8212 20.4711 25.8233 20.4665 25.8363 20.4603C25.8472 20.4551 25.8585 20.452 25.868 20.452H25.8679ZM24.9522 20.709C24.947 20.7056 24.9395 20.7027 24.9471 20.6971C24.9563 20.681 24.9747 20.6754 24.9911 20.6694C25.0203 20.6568 25.0455 20.6353 25.0643 20.6098C25.067 20.592 25.0869 20.5824 25.0868 20.5638C25.087 20.5385 25.0885 20.5125 25.0823 20.4878C25.0755 20.4651 25.0582 20.4477 25.0382 20.4358C25.0246 20.4251 25.0023 20.4221 24.9972 20.4031C24.9944 20.3848 25.0108 20.3709 25.0165 20.3546C25.0284 20.3321 25.0384 20.3085 25.0512 20.2866C25.065 20.2712 25.0863 20.2857 25.0935 20.3006C25.1036 20.3154 25.1125 20.3313 25.1175 20.3484C25.1336 20.3661 25.1479 20.3869 25.1537 20.4104C25.1616 20.427 25.1742 20.4425 25.1734 20.4619C25.1734 20.4841 25.186 20.5039 25.1852 20.5262C25.1859 20.5561 25.1859 20.5873 25.175 20.6155C25.1675 20.6312 25.1525 20.6406 25.1426 20.6546C25.1256 20.6704 25.1069 20.6855 25.085 20.6939C25.0696 20.6988 25.0607 20.7166 25.0413 20.7123C25.0139 20.7127 24.986 20.7165 24.9588 20.712C24.9605 20.7149 24.9505 20.7072 24.9522 20.709V20.709ZM24.5868 20.733C24.5739 20.7196 24.5711 20.714 24.5709 20.7009C24.5708 20.6877 24.5733 20.6825 24.586 20.6697C24.6093 20.6461 24.6208 20.6455 24.6611 20.6659C24.6997 20.6855 24.7127 20.6872 24.7162 20.6734C24.7195 20.6601 24.7417 20.6479 24.7628 20.6478C24.7761 20.6477 24.7837 20.6503 24.7944 20.6586C24.8078 20.6691 24.8084 20.6707 24.8088 20.6949C24.809 20.7196 24.8087 20.7205 24.7933 20.7341C24.7785 20.7471 24.7761 20.7479 24.7578 20.7461C24.7345 20.7438 24.7205 20.7331 24.7167 20.7147C24.7139 20.7014 24.7092 20.6982 24.7057 20.7073C24.7046 20.7102 24.6989 20.7138 24.693 20.7152C24.6821 20.718 24.6637 20.7296 24.6506 20.7419C24.6457 20.7466 24.637 20.7488 24.623 20.7489C24.604 20.7491 24.6014 20.7479 24.5868 20.733H24.5868ZM23.5298 20.2583C23.4943 20.2587 23.4561 20.2885 23.4514 20.3233C23.4595 20.3634 23.4929 20.4027 23.4714 20.445C23.4862 20.499 23.4308 20.5195 23.3931 20.4883C23.3703 20.4365 23.3588 20.3797 23.3248 20.3333C23.2819 20.3212 23.2632 20.3897 23.2331 20.4133C23.248 20.4536 23.2915 20.4897 23.2964 20.54C23.3068 20.5888 23.2771 20.6429 23.2347 20.6683C23.1982 20.7032 23.1481 20.6907 23.1031 20.6983C23.0485 20.7302 23.1432 20.7419 23.1681 20.7433C23.224 20.749 23.282 20.7416 23.3231 20.7C23.3641 20.6804 23.3609 20.6094 23.4097 20.6016C23.4945 20.5978 23.5784 20.6146 23.6631 20.6166C23.7084 20.6275 23.7785 20.6112 23.8097 20.645C23.8098 20.704 23.8599 20.7404 23.9081 20.7633C23.9347 20.7707 23.9627 20.7377 23.9897 20.7316C24.0412 20.7152 24.0256 20.6515 24.0564 20.6266C24.1444 20.6219 24.2333 20.6229 24.3214 20.6216C24.3382 20.622 24.3431 20.5982 24.3547 20.5883C24.3528 20.5542 24.3516 20.5204 24.3464 20.4866C24.3294 20.4436 24.3492 20.3882 24.3181 20.3516C24.2738 20.3396 24.2362 20.3801 24.1914 20.3833C24.142 20.4053 24.1004 20.4509 24.0981 20.5066C24.0688 20.5544 24.0219 20.4981 24.0381 20.4583C24.0362 20.4409 24.0418 20.4207 24.0364 20.405C24.0094 20.3725 23.962 20.3831 23.9248 20.3783C23.8704 20.3805 23.8174 20.3687 23.7631 20.37C23.7155 20.3664 23.6659 20.3741 23.6197 20.3616C23.5647 20.3601 23.5723 20.3063 23.5631 20.2683C23.5533 20.2611 23.5416 20.2582 23.5298 20.2583ZM23.6364 20.455C23.6547 20.4553 23.672 20.4577 23.6898 20.46C23.7127 20.4637 23.7372 20.4521 23.7597 20.46C23.8118 20.4688 23.8639 20.4667 23.9164 20.4716C23.9303 20.4714 23.9402 20.4815 23.9497 20.49V20.6C23.9482 20.6137 23.9538 20.6319 23.9414 20.6416C23.9374 20.6444 23.933 20.6473 23.9281 20.6483C23.9137 20.6446 23.8984 20.6351 23.8914 20.6216C23.8892 20.6026 23.8924 20.5841 23.8931 20.565C23.8927 20.56 23.8952 20.5523 23.8931 20.5483C23.8817 20.5402 23.8689 20.535 23.8547 20.535C23.8094 20.5334 23.765 20.5301 23.7197 20.5283C23.682 20.5259 23.6433 20.5315 23.6064 20.5216C23.5921 20.5164 23.5735 20.5182 23.5648 20.5033C23.5523 20.4888 23.5703 20.4715 23.5831 20.465C23.6001 20.4572 23.6181 20.4546 23.6364 20.455L23.6364 20.455ZM24.2381 20.4683C24.2465 20.4682 24.2492 20.471 24.2531 20.4866L24.2597 20.5133C24.2617 20.5196 24.2586 20.5216 24.2497 20.525C24.2234 20.5349 24.1972 20.5339 24.1881 20.5216C24.1839 20.5161 24.1888 20.4985 24.1964 20.4916C24.2118 20.4778 24.2289 20.4683 24.2381 20.4683Z" fill="#C09300"/>
<path d="M24.6561 13.4982C24.6917 13.5003 24.608 13.3079 24.608 13.3079C24.7021 13.4041 25.0576 13.4271 25.0576 13.4271C24.8443 13.3329 24.6311 12.622 24.6561 12.0553C24.6792 11.4866 24.5746 11.2628 24.4909 11.1792C24.3843 11.0725 24.0414 10.9784 23.8155 10.9659C23.688 10.9596 23.7089 11.0621 23.7089 11.0621C23.4726 11.0014 23.2363 10.9784 23.1297 11.0495C23.0292 11.1165 23.0083 11.451 23.0816 11.3925C23.2593 11.2503 23.414 11.3799 23.5207 11.5346C23.6147 11.6706 23.6085 12.0553 23.4726 12.5049C23.3304 12.9775 22.9414 13.4501 22.9414 13.4501C23.1526 13.4501 23.4496 13.2619 23.4496 13.2619L23.3785 13.5567C23.6022 13.4501 23.78 13.2849 23.78 13.2849L23.9932 13.5086C24.0643 13.4145 24.2066 13.2849 24.2066 13.2849C24.2066 13.2849 24.3843 13.4731 24.6561 13.4982Z" fill="white" stroke="#C09300" stroke-width="0.0649598"/>
<path d="M23.7926 12.1372C23.7926 12.1372 23.6734 13.0133 23.4497 13.2622M23.9809 12.1143C23.9809 12.1143 23.9349 13.0008 23.7802 13.2852M24.1478 12.15C24.1478 12.15 24.1478 13.1202 24.2064 13.2854M24.359 12.198C24.359 12.198 24.4071 13.0135 24.6079 13.3083" stroke="#C09300" stroke-width="0.0677331"/>
<path d="M23.5772 11.7125C23.5667 11.6352 23.5479 11.5745 23.5207 11.5348C23.414 11.3801 23.2594 11.2504 23.0816 11.3926C23.0816 11.3926 23.1423 11.2044 23.2719 11.1982C23.3723 11.1919 23.6002 11.2734 23.801 11.6163C23.801 11.6163 23.6525 11.5829 23.617 11.6143C23.55 11.6728 23.5772 11.7125 23.5772 11.7125ZM23.0631 11.1606C23.0777 11.1124 23.1007 11.0686 23.13 11.0497C23.2367 10.9786 23.4729 11.0016 23.7092 11.0623C23.7092 11.0623 23.6883 10.9598 23.8158 10.9661C24.0417 10.9786 24.3846 11.0728 24.4912 11.1794C24.5163 11.2066 24.5456 11.2463 24.5707 11.3069H24.5665C24.5142 11.2337 24.3658 11.2379 24.3302 11.2421C24.2737 11.2484 24.2382 11.2463 24.1629 11.2651C24.1274 11.2735 24.073 11.2839 24.0437 11.3069C24.0208 11.3257 24.0019 11.3947 23.9664 11.3947C23.9099 11.3947 23.9141 11.3801 23.8994 11.3634C23.8806 11.3404 23.8701 11.3069 23.8513 11.309C23.7928 11.3195 23.6987 11.2735 23.5795 11.1794C23.4604 11.0853 23.4143 11.0623 23.2596 11.0727C23.1069 11.0852 23.0588 11.171 23.0588 11.171L23.0631 11.1606Z" fill="#C09300" stroke="#C09300" stroke-width="0.0188799"/>
<path d="M23.937 11.2985C23.9716 11.2985 23.9997 11.2705 23.9997 11.2358C23.9997 11.2012 23.9716 11.1731 23.937 11.1731C23.9023 11.1731 23.8743 11.2012 23.8743 11.2358C23.8743 11.2705 23.9023 11.2985 23.937 11.2985Z" fill="white"/>
<path d="M23.9987 17.4523C25.7396 16.1134 25.5903 14.1519 25.5903 14.1519C25.5444 14.1611 25.5007 14.1657 25.4548 14.1657C25.0896 14.1657 24.2187 13.9568 24.0155 13.6914C23.7978 13.9316 22.9077 14.1657 22.5448 14.1657C22.4989 14.1657 22.453 14.1611 22.4093 14.1519C22.4093 14.1519 22.2578 16.1133 23.9987 17.4523H23.9987Z" fill="white" stroke="#C09300" stroke-width="0.0613376"/>
<path d="M25.4514 14.2955L25.4062 14.2969C25.0752 14.2969 24.3065 14.1271 24.0102 13.8726C23.6998 14.1077 22.9184 14.2969 22.5928 14.2969C22.5775 14.2969 22.5624 14.2951 22.5475 14.2923C22.5467 14.3665 22.5506 14.4434 22.5552 14.5133C22.5724 14.7747 22.6182 15.037 22.6878 15.2894C22.9069 16.0838 23.3554 16.7589 23.9983 17.271C24.6419 16.7585 25.0908 16.0828 25.3104 15.2878C25.3801 15.0354 25.4261 14.7731 25.4435 14.5118C25.4476 14.4386 25.4516 14.349 25.4514 14.2955Z" stroke="#C09300" stroke-width="0.0488563"/>
<mask id="mask0_1_3746" style="mask-type:luminance" maskUnits="userSpaceOnUse" x="22" y="13" width="4" height="5">
<path d="M25.4362 14.3063L25.3915 14.3077C25.0641 14.3077 24.3037 14.1398 24.0105 13.8879C23.7034 14.1207 22.9304 14.3077 22.6081 14.3077C22.593 14.3076 22.578 14.3061 22.5632 14.3032L22.5708 14.5217C22.5878 14.7804 22.6332 15.0398 22.702 15.2895C22.9188 16.0755 23.3625 16.7434 23.9985 17.2501C24.6351 16.743 25.0794 16.0745 25.2966 15.2879C25.3663 15.0371 25.4104 14.7798 25.4282 14.5201C25.4326 14.4489 25.4352 14.3775 25.436 14.3061L25.4362 14.3063Z" fill="white"/>
</mask>
<g mask="url(#mask0_1_3746)">
<path d="M22.5391 13.854H23.5129V17.2838H22.5391V13.854Z" fill="#C09300"/>
<path fill-rule="evenodd" clip-rule="evenodd" d="M23.5129 13.854H24.4868V17.2838H23.5129V13.854Z" fill="white"/>
<path fill-rule="evenodd" clip-rule="evenodd" d="M24.4866 13.854H25.4604V17.2838H24.4866V13.854Z" fill="#C09300"/>
</g>
</g>
<defs>
<clipPath id="clip0_1_3746">
<rect width="48" height="32" rx="4" fill="white"/>
</clipPath>
</defs>
</svg>
