<svg width="16" height="17" viewBox="0 0 16 17" fill="none" xmlns="http://www.w3.org/2000/svg">
<path fill-rule="evenodd" clip-rule="evenodd" d="M8.88889 1.55539C8.88889 1.06448 8.49093 0.666504 8 0.666504C7.50907 0.666504 7.11111 1.06448 7.11111 1.55539V7.77762H0.888889C0.397973 7.77762 0 8.17557 0 8.6665C0 9.15744 0.397973 9.55539 0.888889 9.55539H7.11111V15.7776C7.11111 16.2685 7.50907 16.6665 8 16.6665C8.49093 16.6665 8.88889 16.2685 8.88889 15.7776V9.55539H15.1111C15.602 9.55539 16 9.15744 16 8.6665C16 8.17557 15.602 7.77762 15.1111 7.77762H8.88889V1.55539Z" fill="#1F1F1F"/>
</svg>
