<svg width="24" height="24" viewBox="0 0 24 24" fill="none" xmlns="http://www.w3.org/2000/svg">
<path d="M8.95947 22.0013C9.48072 23.1734 10.6366 24 12.0007 24C13.3649 24 14.5207 23.1734 15.042 22.0013C14.0801 22.0483 13.0798 22.08 12.0007 22.08C10.9217 22.08 9.92139 22.0483 8.95947 22.0013Z" fill="#1F1F1F"/>
<path d="M22.5885 16.92C21.3232 15.3245 19.1997 12.1882 19.1997 9.12C19.1997 6.07776 17.2451 3.34078 14.3997 2.3347C14.3651 1.04062 13.3015 0 12.0006 0C10.6989 0 9.63617 1.04062 9.60157 2.3347C6.75518 3.34078 4.80064 6.07776 4.80064 9.12C4.80064 12.1891 2.67809 15.3245 1.41185 16.92C0.989464 17.4528 0.85887 18.1565 1.06339 18.8025C1.26307 19.4332 1.76032 19.9219 2.39393 20.1082C3.5037 20.4355 5.32287 20.8042 8.09731 20.9923C9.29825 21.0729 10.5895 21.12 12.0007 21.12C13.4109 21.12 14.7021 21.0729 15.9031 20.9923C18.6784 20.8042 20.4967 20.4355 21.6074 20.1082C22.241 19.9219 22.7373 19.4333 22.937 18.8025C23.1415 18.1565 23.0099 17.4528 22.5885 16.92Z" fill="#1F1F1F"/>
</svg>
