<svg width="20" height="21" viewBox="0 0 20 21" fill="none" xmlns="http://www.w3.org/2000/svg">
<g clip-path="url(#clip0_2_6027)">
<path d="M6.64874 8.52323C6.9542 8.82869 6.9542 9.32323 6.64874 9.62792C6.34326 9.93339 5.84874 9.93339 5.54405 9.62792C5.23858 9.32246 5.23858 8.82792 5.54405 8.52323C5.84951 8.21776 6.34405 8.21776 6.64874 8.52323ZM17.4706 13.2771L17.0292 13.7185C17.0081 14.6819 16.6347 15.6381 15.9081 16.374L13.4339 18.8802C12.6972 19.6264 11.7144 20.0389 10.6659 20.042H10.6526C9.60968 20.042 8.6292 19.6357 7.8917 18.8982L2.09795 13.1537C1.59014 12.6467 1.34483 11.949 1.42295 11.2373L2.02061 5.83417C2.06045 5.47792 2.33624 5.19433 2.69093 5.14589L8.07295 4.40996C8.80108 4.31308 9.53389 4.56073 10.048 5.07479L15.8878 10.8654C16.1902 11.1678 16.4323 11.5084 16.6152 11.8717C17.2496 10.9607 17.1604 9.68807 16.3479 8.87558L10.4175 3.09042C10.2386 2.91152 9.9917 2.8287 9.75264 2.86229L4.37061 3.59823C3.9417 3.65604 3.54874 3.35683 3.49014 2.93027C3.43233 2.50292 3.73155 2.10917 4.15811 2.05058L9.54093 1.31386C10.2605 1.21151 11.0011 1.46307 11.5159 1.97948L17.4448 7.76464C18.9652 9.28417 18.9744 11.7537 17.4706 13.2771ZM14.7847 11.9724L8.94483 6.18183C8.77061 6.00761 8.52608 5.92714 8.28311 5.9576L3.50576 6.61152L2.9753 11.4084C2.94951 11.6451 3.03076 11.8779 3.19951 12.0459L8.99326 17.7904C9.4378 18.2357 10.0261 18.4787 10.6519 18.4787H10.6597C11.2894 18.4771 11.8792 18.2295 12.3206 17.7811L14.7948 15.2747C15.6972 14.3607 15.6924 12.8787 14.7839 11.9709L14.7847 11.9724Z" fill="#DF1C26"/>
</g>
<defs>
<clipPath id="clip0_2_6027">
<rect width="20" height="20" fill="white" transform="translate(0 0.666626)"/>
</clipPath>
</defs>
</svg>
