<svg width="22" height="22" viewBox="0 0 22 22" fill="none" xmlns="http://www.w3.org/2000/svg">
<path d="M21.8693 20.5542L15.3561 14.2949C16.7089 12.8514 17.5404 10.9481 17.5404 8.85712C17.5404 4.36721 13.7392 0.714294 9.06707 0.714294C4.39491 0.714294 0.59375 4.36721 0.59375 8.85717C0.59375 13.3471 4.39491 17 9.06707 17C11.2429 17 13.2234 16.201 14.7255 14.9009L21.2387 21.1602C21.3258 21.2439 21.44 21.2857 21.5541 21.2857C21.6682 21.2857 21.7823 21.2439 21.8694 21.1602C22.0436 20.9927 22.0436 20.7215 21.8693 20.5542ZM9.06707 16.1429C4.88704 16.1429 1.48571 12.8746 1.48571 8.85717C1.48571 4.83975 4.88704 1.57142 9.06707 1.57142C13.2471 1.57142 16.6484 4.83971 16.6484 8.85717C16.6484 12.8746 13.2471 16.1429 9.06707 16.1429Z" fill="#DF1C26"/>
</svg>
