<svg width="25" height="24" viewBox="0 0 25 24" fill="none" xmlns="http://www.w3.org/2000/svg">
<path d="M2.48182 18C3.30898 19.4356 5.14334 19.9288 6.57893 19.1017C6.57991 19.1011 6.58085 19.1005 6.58184 19.1L7.02682 18.843C7.86682 19.5616 8.83235 20.119 9.8748 20.487V21C9.8748 22.6568 11.218 24 12.8748 24C14.5316 24 15.8748 22.6568 15.8748 21V20.487C16.9174 20.1184 17.883 19.5604 18.7228 18.841L19.1698 19.099C20.6057 19.9274 22.4414 19.4349 23.2698 17.999C24.0982 16.563 23.6058 14.7274 22.1698 13.899L21.7258 13.643C21.9257 12.5554 21.9257 11.4405 21.7258 10.353L22.1698 10.097C23.6057 9.26855 24.0982 7.43292 23.2698 5.99695C22.4414 4.56103 20.6058 4.06852 19.1698 4.89694L18.7248 5.15395C17.884 4.43616 16.9178 3.87984 15.8748 3.513V3C15.8748 1.34316 14.5316 0 12.8748 0C11.218 0 9.8748 1.34316 9.8748 3V3.513C8.83221 3.88158 7.86663 4.43958 7.02682 5.15902L6.57982 4.90003C5.14385 4.07156 3.30823 4.56408 2.4798 6C1.65138 7.43592 2.14385 9.27159 3.57982 10.1L4.02382 10.356C3.82395 11.4435 3.82395 12.5584 4.02382 13.646L3.57982 13.902C2.14784 14.7326 1.65696 16.5647 2.48182 18ZM12.8748 8.00002C15.0839 8.00002 16.8748 9.79088 16.8748 12C16.8748 14.2091 15.0839 16 12.8748 16C10.6657 16 8.87482 14.2091 8.87482 12C8.87482 9.79088 10.6657 8.00002 12.8748 8.00002Z" fill="#DF1C26"/>
</svg>
