<svg width="20" height="21" viewBox="0 0 20 21" fill="none" xmlns="http://www.w3.org/2000/svg">
<g clip-path="url(#clip0_1_415)">
<path d="M5.83341 20.5001C6.75389 20.5001 7.50008 19.7539 7.50008 18.8334C7.50008 17.9129 6.75389 17.1667 5.83341 17.1667C4.91294 17.1667 4.16675 17.9129 4.16675 18.8334C4.16675 19.7539 4.91294 20.5001 5.83341 20.5001Z" fill="white"/>
<path d="M14.1667 20.5001C15.0871 20.5001 15.8333 19.7539 15.8333 18.8334C15.8333 17.9129 15.0871 17.1667 14.1667 17.1667C13.2462 17.1667 12.5 17.9129 12.5 18.8334C12.5 19.7539 13.2462 20.5001 14.1667 20.5001Z" fill="white"/>
<path d="M19.1666 3H17.4999V1.33333C17.4999 1.11232 17.4121 0.900358 17.2558 0.744078C17.0996 0.587797 16.8876 0.5 16.6666 0.5C16.4456 0.5 16.2336 0.587797 16.0773 0.744078C15.921 0.900358 15.8333 1.11232 15.8333 1.33333V3H14.1666C13.9456 3 13.7336 3.0878 13.5773 3.24408C13.421 3.40036 13.3333 3.61232 13.3333 3.83333C13.3333 4.05435 13.421 4.26631 13.5773 4.42259C13.7336 4.57887 13.9456 4.66667 14.1666 4.66667H15.8333V6.33333C15.8333 6.55435 15.921 6.76631 16.0773 6.92259C16.2336 7.07887 16.4456 7.16667 16.6666 7.16667C16.8876 7.16667 17.0996 7.07887 17.2558 6.92259C17.4121 6.76631 17.4999 6.55435 17.4999 6.33333V4.66667H19.1666C19.3876 4.66667 19.5996 4.57887 19.7558 4.42259C19.9121 4.26631 19.9999 4.05435 19.9999 3.83333C19.9999 3.61232 19.9121 3.40036 19.7558 3.24408C19.5996 3.0878 19.3876 3 19.1666 3Z" fill="white"/>
<path d="M18.1425 8.605C18.0348 8.58484 17.9241 8.58626 17.8169 8.60919C17.7097 8.63212 17.6081 8.6761 17.518 8.73857C17.428 8.80105 17.3512 8.88078 17.2922 8.97315C17.2331 9.06552 17.193 9.16868 17.1742 9.27667C17.0702 9.85346 16.767 10.3754 16.3173 10.7513C15.8677 11.1272 15.3003 11.3332 14.7142 11.3333H4.515L3.73167 4.66667H10.8333C11.0543 4.66667 11.2663 4.57887 11.4226 4.42259C11.5789 4.26631 11.6667 4.05435 11.6667 3.83333C11.6667 3.61232 11.5789 3.40036 11.4226 3.24408C11.2663 3.0878 11.0543 3 10.8333 3H3.535L3.5 2.70667C3.42818 2.09883 3.13588 1.53846 2.67849 1.13175C2.2211 0.725045 1.6304 0.500261 1.01833 0.5L0.833333 0.5C0.61232 0.5 0.400358 0.587797 0.244078 0.744078C0.0877974 0.900358 0 1.11232 0 1.33333C0 1.55435 0.0877974 1.76631 0.244078 1.92259C0.400358 2.07887 0.61232 2.16667 0.833333 2.16667H1.01833C1.22244 2.16669 1.41945 2.24163 1.57198 2.37726C1.72451 2.5129 1.82195 2.69979 1.84583 2.9025L2.9925 12.6525C3.11154 13.6665 3.59873 14.6015 4.36159 15.28C5.12445 15.9585 6.10988 16.3334 7.13083 16.3333H15.8333C16.0543 16.3333 16.2663 16.2455 16.4226 16.0893C16.5789 15.933 16.6667 15.721 16.6667 15.5C16.6667 15.279 16.5789 15.067 16.4226 14.9107C16.2663 14.7545 16.0543 14.6667 15.8333 14.6667H7.13083C6.61377 14.6668 6.10939 14.5065 5.68718 14.208C5.26496 13.9096 4.94569 13.4875 4.77333 13H14.7142C15.691 13.0001 16.6367 12.657 17.3863 12.0307C18.1358 11.4044 18.6415 10.5346 18.815 9.57333C18.8345 9.46559 18.8325 9.35507 18.8092 9.24808C18.786 9.1411 18.7419 9.03974 18.6794 8.94981C18.6169 8.85989 18.5374 8.78315 18.4453 8.72398C18.3531 8.66482 18.2503 8.62439 18.1425 8.605Z" fill="white"/>
</g>
<defs>
<clipPath id="clip0_1_415">
<rect width="20" height="20" fill="white" transform="translate(0 0.5)"/>
</clipPath>
</defs>
</svg>
