<svg width="13" height="13" viewBox="0 0 13 13" fill="none" xmlns="http://www.w3.org/2000/svg">
<g clip-path="url(#clip0_3356_213)">
<path d="M4 12.5001C4.55228 12.5001 5 12.0524 5 11.5001C5 10.9478 4.55228 10.5001 4 10.5001C3.44772 10.5001 3 10.9478 3 11.5001C3 12.0524 3.44772 12.5001 4 12.5001Z" fill="white"/>
<path d="M9 12.5001C9.55228 12.5001 10 12.0524 10 11.5001C10 10.9478 9.55228 10.5001 9 10.5001C8.44772 10.5001 8 10.9478 8 11.5001C8 12.0524 8.44772 12.5001 9 12.5001Z" fill="white"/>
<path d="M12 2.00012H11V1.00012C11 0.867514 10.9473 0.740337 10.8536 0.646569C10.7598 0.5528 10.6326 0.500122 10.5 0.500122C10.3674 0.500122 10.2402 0.5528 10.1464 0.646569C10.0527 0.740337 10 0.867514 10 1.00012V2.00012H9C8.86739 2.00012 8.74021 2.0528 8.64645 2.14657C8.55268 2.24034 8.5 2.36751 8.5 2.50012C8.5 2.63273 8.55268 2.75991 8.64645 2.85368C8.74021 2.94744 8.86739 3.00012 9 3.00012H10V4.00012C10 4.13273 10.0527 4.25991 10.1464 4.35368C10.2402 4.44744 10.3674 4.50012 10.5 4.50012C10.6326 4.50012 10.7598 4.44744 10.8536 4.35368C10.9473 4.25991 11 4.13273 11 4.00012V3.00012H12C12.1326 3.00012 12.2598 2.94744 12.3536 2.85368C12.4473 2.75991 12.5 2.63273 12.5 2.50012C12.5 2.36751 12.4473 2.24034 12.3536 2.14657C12.2598 2.0528 12.1326 2.00012 12 2.00012Z" fill="white"/>
<path d="M11.3855 5.36312C11.3209 5.35102 11.2544 5.35188 11.1901 5.36564C11.1258 5.37939 11.0649 5.40578 11.0108 5.44327C10.9568 5.48075 10.9107 5.52859 10.8753 5.58401C10.8399 5.63943 10.8158 5.70133 10.8045 5.76612C10.7421 6.1122 10.5602 6.42537 10.2904 6.65092C10.0206 6.87647 9.68015 7.00007 9.3285 7.00012H3.209L2.739 3.00012H7C7.13261 3.00012 7.25979 2.94744 7.35355 2.85368C7.44732 2.75991 7.5 2.63273 7.5 2.50012C7.5 2.36751 7.44732 2.24034 7.35355 2.14657C7.25979 2.0528 7.13261 2.00012 7 2.00012H2.621L2.6 1.82412C2.55691 1.45942 2.38153 1.1232 2.10709 0.879174C1.83266 0.635149 1.47824 0.500278 1.111 0.500122H1C0.867392 0.500122 0.740215 0.5528 0.646447 0.646569C0.552678 0.740337 0.5 0.867514 0.5 1.00012C0.5 1.13273 0.552678 1.25991 0.646447 1.35368C0.740215 1.44744 0.867392 1.50012 1 1.50012H1.111C1.23347 1.50014 1.35167 1.5451 1.44319 1.62648C1.5347 1.70786 1.59317 1.82 1.6075 1.94162L2.2955 7.79162C2.36693 8.40002 2.65924 8.96101 3.11695 9.36813C3.57467 9.77524 4.16593 10.0001 4.7785 10.0001H10C10.1326 10.0001 10.2598 9.94744 10.3536 9.85368C10.4473 9.75991 10.5 9.63273 10.5 9.50012C10.5 9.36751 10.4473 9.24034 10.3536 9.14657C10.2598 9.0528 10.1326 9.00012 10 9.00012H4.7785C4.46826 9.00018 4.16563 8.90404 3.91231 8.72495C3.65898 8.54586 3.46741 8.29262 3.364 8.00012H9.3285C9.91457 8.00018 10.482 7.79433 10.9318 7.41853C11.3815 7.04274 11.6849 6.52088 11.789 5.94412C11.8007 5.87948 11.7995 5.81316 11.7855 5.74897C11.7716 5.68478 11.7451 5.62397 11.7076 5.57001C11.6702 5.51605 11.6224 5.47001 11.5672 5.43451C11.5119 5.39901 11.4502 5.37475 11.3855 5.36312Z" fill="white"/>
</g>
<defs>
<clipPath id="clip0_3356_213">
<rect width="12" height="12" fill="white" transform="translate(0.5 0.500122)"/>
</clipPath>
</defs>
</svg>
