<svg width="13" height="13" viewBox="0 0 13 13" fill="none" xmlns="http://www.w3.org/2000/svg">
<path d="M11.4105 7.40465H7.26159V11.5535C7.26159 12.0924 6.82438 12.5297 6.28546 12.5297C5.74654 12.5297 5.30933 12.0924 5.30933 11.5535V7.40465H1.16046C0.621538 7.40465 0.184326 6.96744 0.184326 6.42852C0.184326 5.88961 0.621538 5.45239 1.16046 5.45239H5.30933V1.30352C5.30933 0.764605 5.74654 0.327393 6.28546 0.327393C6.82438 0.327393 7.26159 0.764605 7.26159 1.30352V5.45239H11.4105C11.9494 5.45239 12.3866 5.88961 12.3866 6.42852C12.3866 6.96744 11.9494 7.40465 11.4105 7.40465Z" fill="#EEEEEE"/>
</svg>
