<svg width="133" height="12" viewBox="0 0 133 12" fill="none" xmlns="http://www.w3.org/2000/svg">
<path d="M6.76065 0.761819C6.92456 0.878897 7.01432 0.98817 7.02993 1.08964C7.05334 1.1911 7.01432 1.31208 6.91285 1.45258L4.16153 5.63224V8.38356C4.16153 8.48503 4.14982 8.57869 4.12641 8.66455C4.10299 8.7426 4.05226 8.80114 3.97421 8.84017C3.90396 8.887 3.79079 8.91041 3.63468 8.91041C3.47858 8.91041 3.3615 8.887 3.28345 8.84017C3.2132 8.80114 3.16247 8.7387 3.13125 8.65284C3.10783 8.56698 3.09613 8.46942 3.09613 8.36015V5.62053L0.333098 1.47599C0.239436 1.3355 0.204312 1.21452 0.227728 1.11305C0.251143 1.00378 0.344805 0.890605 0.508714 0.773528C0.625791 0.695476 0.723356 0.648645 0.801407 0.633034C0.887264 0.609619 0.965316 0.621327 1.03556 0.668158C1.10581 0.707184 1.17215 0.781333 1.23459 0.890605L3.62297 4.63708L6.02306 0.890605C6.09331 0.781333 6.15965 0.707184 6.22209 0.668158C6.29234 0.629132 6.37039 0.617424 6.45625 0.633034C6.54211 0.64084 6.64357 0.683768 6.76065 0.761819Z" fill="black"/>
<path d="M9.24946 8.96895C8.86701 8.96895 8.50016 8.8948 8.14893 8.7465C7.80551 8.59821 7.4972 8.39527 7.22402 8.1377C6.95084 7.87233 6.7362 7.56402 6.58009 7.21279C6.42399 6.86156 6.34594 6.4791 6.34594 6.06543C6.34594 5.65956 6.42009 5.28491 6.56839 4.94149C6.71669 4.59025 6.92352 4.28195 7.1889 4.01657C7.45427 3.7512 7.75867 3.54436 8.1021 3.39606C8.45333 3.23996 8.82798 3.16191 9.22604 3.16191C9.7646 3.16191 10.2485 3.29069 10.6778 3.54826C11.1149 3.79803 11.4622 4.14146 11.7198 4.57855C11.9774 5.01563 12.1062 5.50736 12.1062 6.05372C12.1062 6.48301 12.0281 6.87717 11.872 7.2362C11.7159 7.58744 11.5052 7.89184 11.2398 8.14941C10.9744 8.40698 10.67 8.60991 10.3266 8.75821C9.98315 8.8987 9.62411 8.96895 9.24946 8.96895ZM9.22604 7.95038C9.55386 7.95038 9.85826 7.86842 10.1392 7.70451C10.4202 7.54061 10.6466 7.31426 10.8183 7.02547C10.99 6.73667 11.0759 6.40886 11.0759 6.04201C11.0759 5.67517 10.9939 5.35126 10.83 5.07027C10.6739 4.78928 10.4554 4.57074 10.1744 4.41464C9.89339 4.25853 9.57337 4.18048 9.21434 4.18048C8.87091 4.18048 8.5587 4.26244 8.27772 4.42634C8.00454 4.59025 7.78209 4.8127 7.61038 5.09369C7.44647 5.37467 7.36451 5.69468 7.36451 6.05372C7.36451 6.42837 7.45037 6.76009 7.62208 7.04888C7.7938 7.32987 8.02015 7.55231 8.30113 7.71622C8.58992 7.87232 8.89823 7.95038 9.22604 7.95038Z" fill="black"/>
<path d="M15.4847 8.91041C15.1412 8.91041 14.8212 8.84797 14.5246 8.72309C14.2358 8.59821 13.9822 8.42259 13.7636 8.19624C13.5451 7.96989 13.3734 7.69671 13.2485 7.3767C13.1314 7.05669 13.0729 6.69374 13.0729 6.28788V3.7473C13.0729 3.63802 13.0846 3.54436 13.108 3.46631C13.1314 3.38826 13.1782 3.32972 13.2485 3.29069C13.3265 3.24386 13.4397 3.22045 13.588 3.22045C13.7363 3.22045 13.8456 3.24386 13.9158 3.29069C13.9939 3.33752 14.0446 3.39997 14.068 3.47802C14.0914 3.55607 14.1031 3.64973 14.1031 3.759V6.29958C14.1031 6.6196 14.1578 6.90448 14.2671 7.15425C14.3763 7.39621 14.5402 7.58353 14.7588 7.71622C14.9851 7.84891 15.2583 7.91525 15.5783 7.91525C15.9061 7.91525 16.1871 7.84891 16.4213 7.71622C16.6632 7.58353 16.8467 7.39621 16.9715 7.15425C17.1042 6.90448 17.1706 6.6196 17.1706 6.29958V3.7473C17.1706 3.63802 17.1823 3.54436 17.2057 3.46631C17.2291 3.38826 17.2759 3.32972 17.3462 3.29069C17.4242 3.24386 17.5374 3.22045 17.6857 3.22045C17.834 3.22045 17.9433 3.24386 18.0135 3.29069C18.0916 3.33752 18.1384 3.39997 18.154 3.47802C18.1774 3.55607 18.1891 3.64973 18.1891 3.759V8.40698C18.1891 8.50064 18.1774 8.5865 18.154 8.66455C18.1384 8.7348 18.0916 8.78943 18.0135 8.82846C17.9433 8.86748 17.834 8.887 17.6857 8.887C17.5764 8.887 17.4867 8.87529 17.4164 8.85187C17.354 8.82846 17.3072 8.79724 17.2759 8.75821C17.2447 8.71918 17.2213 8.67626 17.2057 8.62943C17.1979 8.57479 17.194 8.52015 17.194 8.46552L17.2408 7.96208C17.1628 8.05575 17.0691 8.15721 16.9598 8.26649C16.8506 8.37576 16.7218 8.48113 16.5735 8.58259C16.433 8.67626 16.273 8.75431 16.0935 8.81675C15.9139 8.87919 15.711 8.91041 15.4847 8.91041Z" fill="black"/>
<path d="M20.1089 8.8987C19.9606 8.8987 19.8474 8.87529 19.7693 8.82846C19.6991 8.78943 19.6522 8.73089 19.6288 8.65284C19.6132 8.56698 19.6054 8.46942 19.6054 8.36015V3.7473C19.6054 3.63022 19.6171 3.53265 19.6405 3.4546C19.664 3.37655 19.7108 3.32191 19.781 3.29069C19.8513 3.25167 19.9645 3.23215 20.1206 3.23215C20.2611 3.23215 20.3664 3.25167 20.4367 3.29069C20.5147 3.32191 20.5655 3.37265 20.5889 3.44289C20.6201 3.50534 20.6357 3.57948 20.6357 3.66534L20.5889 4.01657C20.6435 3.91511 20.7059 3.81364 20.7762 3.71217C20.8542 3.6107 20.9479 3.52095 21.0572 3.44289C21.1743 3.35704 21.3108 3.28679 21.467 3.23215C21.6309 3.17752 21.8299 3.1502 22.064 3.1502C22.1811 3.1502 22.2904 3.16191 22.3919 3.18532C22.5011 3.20093 22.6026 3.22825 22.6963 3.26728C22.7977 3.3063 22.8836 3.35313 22.9538 3.40777C23.0241 3.4546 23.0787 3.50924 23.1177 3.57168C23.1646 3.62632 23.188 3.69266 23.188 3.77071C23.188 3.94242 23.1334 4.09072 23.0241 4.21561C22.9148 4.33268 22.8016 4.39122 22.6846 4.39122C22.5831 4.39122 22.5089 4.37951 22.4621 4.3561C22.4153 4.32488 22.3684 4.29366 22.3216 4.26244C22.2826 4.23122 22.2241 4.2039 22.146 4.18048C22.0679 4.14926 21.9431 4.13365 21.7714 4.13365C21.6543 4.13365 21.5294 4.15707 21.3967 4.2039C21.2718 4.25073 21.1508 4.32097 21.0338 4.41464C20.9167 4.50049 20.8191 4.61367 20.7411 4.75416C20.6708 4.89465 20.6357 5.05856 20.6357 5.24589V8.38356C20.6357 8.49284 20.624 8.5865 20.6006 8.66455C20.5772 8.7426 20.5264 8.80114 20.4484 8.84017C20.3781 8.87919 20.265 8.8987 20.1089 8.8987Z" fill="black"/>
<path d="M27.908 8.8987C27.7597 8.8987 27.6466 8.87529 27.5685 8.82846C27.4983 8.78943 27.4514 8.73089 27.428 8.65284C27.4046 8.56698 27.3929 8.46942 27.3929 8.36015V1.25355C27.3929 1.15208 27.4046 1.06232 27.428 0.984267C27.4592 0.906215 27.5139 0.843774 27.5919 0.796943C27.67 0.750112 27.7793 0.726696 27.9197 0.726696H30.4837C30.8584 0.726696 31.2018 0.785235 31.514 0.902313C31.834 1.01158 32.1111 1.1833 32.3453 1.41745C32.5872 1.6438 32.7746 1.92089 32.9072 2.2487C33.0399 2.57652 33.1063 2.95507 33.1063 3.38435C33.1063 3.80583 33.0399 4.18048 32.9072 4.5083C32.7746 4.83612 32.5872 5.1132 32.3453 5.33955C32.1033 5.55809 31.8223 5.7259 31.5023 5.84298C31.1901 5.96006 30.8467 6.0186 30.472 6.0186H28.4583V8.37186C28.4583 8.48113 28.4427 8.57479 28.4115 8.65284C28.3881 8.73089 28.3373 8.78943 28.2593 8.82846C28.189 8.87529 28.0719 8.8987 27.908 8.8987ZM28.4583 4.95319H30.4837C30.796 4.95319 31.0691 4.89465 31.3033 4.77758C31.5374 4.65269 31.7209 4.47318 31.8536 4.23902C31.9862 3.99706 32.0526 3.70437 32.0526 3.36094C32.0526 3.03312 31.9901 2.75214 31.8653 2.51798C31.7404 2.28383 31.557 2.10431 31.315 1.97943C31.0808 1.85454 30.7999 1.7921 30.472 1.7921H28.4583V4.95319Z" fill="black"/>
<path d="M36.9182 8.96895C36.5357 8.96895 36.1689 8.8948 35.8176 8.7465C35.4742 8.59821 35.1659 8.39527 34.8927 8.1377C34.6195 7.87233 34.4049 7.56402 34.2488 7.21279C34.0927 6.86156 34.0146 6.4791 34.0146 6.06543C34.0146 5.65956 34.0888 5.28491 34.2371 4.94149C34.3854 4.59025 34.5922 4.28195 34.8576 4.01657C35.123 3.7512 35.4274 3.54436 35.7708 3.39606C36.122 3.23996 36.4967 3.16191 36.8947 3.16191C37.4333 3.16191 37.9172 3.29069 38.3465 3.54826C38.7836 3.79803 39.1309 4.14146 39.3885 4.57855C39.6461 5.01563 39.7748 5.50736 39.7748 6.05372C39.7748 6.48301 39.6968 6.87717 39.5407 7.2362C39.3846 7.58744 39.1739 7.89184 38.9085 8.14941C38.6431 8.40698 38.3387 8.60991 37.9953 8.75821C37.6518 8.8987 37.2928 8.96895 36.9182 8.96895ZM36.8947 7.95038C37.2226 7.95038 37.527 7.86842 37.8079 7.70451C38.0889 7.54061 38.3153 7.31426 38.487 7.02547C38.6587 6.73667 38.7446 6.40886 38.7446 6.04201C38.7446 5.67517 38.6626 5.35126 38.4987 5.07027C38.3426 4.78928 38.1241 4.57074 37.8431 4.41464C37.5621 4.25853 37.2421 4.18048 36.883 4.18048C36.5396 4.18048 36.2274 4.26244 35.9464 4.42634C35.6732 4.59025 35.4508 4.8127 35.2791 5.09369C35.1152 5.37467 35.0332 5.69468 35.0332 6.05372C35.0332 6.42837 35.1191 6.76009 35.2908 7.04888C35.4625 7.32987 35.6888 7.55231 35.9698 7.71622C36.2586 7.87232 36.5669 7.95038 36.8947 7.95038Z" fill="black"/>
<path d="M43.5748 8.92212C43.169 8.92212 42.7865 8.85578 42.4275 8.72309C42.0762 8.5904 41.764 8.39917 41.4909 8.14941C41.2255 7.89964 41.0147 7.60305 40.8586 7.25962C40.7103 6.90839 40.6362 6.51032 40.6362 6.06543C40.6362 5.62054 40.7103 5.22637 40.8586 4.88295C41.0147 4.53171 41.2255 4.23122 41.4909 3.98145C41.7562 3.73168 42.0645 3.54046 42.4158 3.40777C42.7748 3.27508 43.1534 3.20874 43.5514 3.20874C43.8168 3.20874 44.0783 3.25167 44.3358 3.33752C44.5934 3.41558 44.8198 3.52095 45.0149 3.65363C45.2178 3.77852 45.3622 3.9112 45.4481 4.0517C45.5261 4.15316 45.5808 4.23902 45.612 4.30927C45.651 4.37171 45.6549 4.44586 45.6237 4.53171C45.5925 4.59416 45.5495 4.65269 45.4949 4.70733C45.4403 4.75416 45.3856 4.79319 45.331 4.82441C45.1905 4.93368 45.05 4.94929 44.9095 4.87124C44.8237 4.78538 44.7261 4.70733 44.6168 4.63708C44.5154 4.55903 44.4061 4.48879 44.289 4.42634C44.1719 4.3639 44.0509 4.31707 43.9261 4.28585C43.809 4.24683 43.6841 4.22731 43.5514 4.22731C43.1846 4.22731 42.8607 4.30536 42.5797 4.46147C42.2987 4.60977 42.0801 4.82441 41.924 5.10539C41.7757 5.37858 41.7016 5.69859 41.7016 6.06543C41.7016 6.43227 41.7757 6.75228 41.924 7.02547C42.0801 7.29865 42.2948 7.51329 42.568 7.66939C42.849 7.82549 43.169 7.90355 43.528 7.90355C43.6919 7.90355 43.848 7.88403 43.9963 7.84501C44.1524 7.79818 44.2968 7.73964 44.4295 7.66939C44.5622 7.59134 44.6715 7.50938 44.7573 7.42353C44.8354 7.36889 44.9017 7.32206 44.9563 7.28304C45.011 7.24401 45.0773 7.2245 45.1554 7.2245C45.2178 7.2245 45.2842 7.25181 45.3544 7.30645C45.4247 7.35328 45.4988 7.42743 45.5769 7.5289C45.6393 7.59914 45.6744 7.67329 45.6822 7.75134C45.6978 7.8294 45.6861 7.90355 45.6471 7.97379C45.6081 8.04404 45.5456 8.11428 45.4598 8.18453C45.3349 8.30941 45.1671 8.43039 44.9563 8.54747C44.7534 8.65674 44.531 8.7465 44.289 8.81675C44.0471 8.887 43.809 8.92212 43.5748 8.92212Z" fill="black"/>
<path d="M51.2061 7.9855C51.3544 8.10258 51.4324 8.21575 51.4402 8.32502C51.4559 8.4343 51.4012 8.56308 51.2763 8.71138C51.1827 8.82065 51.0968 8.8909 51.0188 8.92212C50.9485 8.96115 50.8744 8.96505 50.7963 8.93383C50.7183 8.91041 50.6285 8.85578 50.527 8.76992L47.8811 6.61569V8.37186C47.8811 8.48113 47.8655 8.57479 47.8343 8.65284C47.8108 8.73089 47.764 8.78943 47.6938 8.82846C47.6235 8.87529 47.5103 8.8987 47.3542 8.8987C47.2137 8.8987 47.1045 8.87529 47.0264 8.82846C46.9484 8.78943 46.8976 8.73089 46.8742 8.65284C46.8586 8.56698 46.8508 8.46942 46.8508 8.36015V1.13647C46.8508 1.02719 46.8625 0.933533 46.8859 0.855482C46.9093 0.77743 46.9601 0.718891 47.0381 0.679866C47.1162 0.633035 47.2255 0.609619 47.3659 0.609619C47.5221 0.609619 47.6352 0.633035 47.7055 0.679866C47.7757 0.718891 47.8226 0.781333 47.846 0.867189C47.8694 0.945241 47.8811 1.0389 47.8811 1.14818V5.29272L49.8129 3.44289C49.8987 3.35704 49.9807 3.2985 50.0587 3.26728C50.1446 3.22825 50.2265 3.22045 50.3046 3.24386C50.3904 3.26728 50.4763 3.32972 50.5622 3.43119C50.7027 3.58729 50.769 3.71998 50.7612 3.82925C50.7612 3.93072 50.6909 4.04779 50.5505 4.18048L48.6538 5.97177L51.2061 7.9855Z" fill="black"/>
<path d="M54.8938 8.95724C54.4255 8.95724 54.008 8.87919 53.6411 8.72309C53.2743 8.56699 52.9621 8.35625 52.7045 8.09087C52.4547 7.81769 52.2635 7.50548 52.1308 7.15425C51.9981 6.80302 51.9318 6.42447 51.9318 6.0186C51.9318 5.48004 52.0567 5.00002 52.3064 4.57855C52.5562 4.15707 52.8996 3.82535 53.3367 3.58339C53.7816 3.33362 54.2889 3.20874 54.8587 3.20874C55.249 3.20874 55.5963 3.27118 55.9007 3.39606C56.2129 3.51314 56.4783 3.67315 56.6968 3.87608C56.9154 4.07901 57.0832 4.30536 57.2003 4.55513C57.3173 4.80489 57.3759 5.05466 57.3759 5.30443C57.3759 5.70249 57.2822 5.98348 57.0949 6.14738C56.9076 6.30349 56.6773 6.38154 56.4041 6.38154H53.0206C53.0128 6.72497 53.1026 7.02156 53.2899 7.27133C53.485 7.51329 53.727 7.70061 54.0158 7.8333C54.3124 7.96599 54.609 8.03233 54.9056 8.03233C55.1241 8.03233 55.3114 8.02062 55.4675 7.99721C55.6236 7.97379 55.7602 7.94257 55.8773 7.90355C55.9944 7.86452 56.0958 7.82549 56.1817 7.78647C56.2676 7.74744 56.3417 7.70842 56.4041 7.66939C56.4744 7.63036 56.5407 7.60305 56.6032 7.58744C56.6734 7.57183 56.7398 7.57963 56.8022 7.61085C56.8725 7.63427 56.9271 7.685 56.9661 7.76305C57.0129 7.82549 57.0442 7.88403 57.0598 7.93867C57.0754 7.99331 57.0832 8.05184 57.0832 8.11429C57.0832 8.22356 56.9895 8.34454 56.8022 8.47723C56.6149 8.60991 56.3534 8.72309 56.0178 8.81675C55.69 8.91041 55.3153 8.95724 54.8938 8.95724ZM53.0206 5.69078H55.9593C56.1075 5.69078 56.2168 5.67127 56.2871 5.63224C56.3651 5.59322 56.4041 5.48785 56.4041 5.31613C56.4041 5.09759 56.3378 4.90246 56.2051 4.73075C56.0724 4.55123 55.889 4.40683 55.6549 4.29756C55.4285 4.18829 55.167 4.13365 54.8704 4.13365C54.527 4.13365 54.2109 4.2039 53.9221 4.34439C53.6411 4.47708 53.4187 4.6605 53.2548 4.89465C53.0909 5.12881 53.0128 5.39419 53.0206 5.69078Z" fill="black"/>
<path d="M61.1022 8.8987C60.7353 8.8987 60.4231 8.86358 60.1655 8.79333C59.9158 8.72309 59.7089 8.61382 59.545 8.46552C59.3811 8.31722 59.264 8.12599 59.1938 7.89184C59.1235 7.64988 59.0884 7.35328 59.0884 7.00205V1.82722C59.0884 1.71795 59.1001 1.62429 59.1235 1.54624C59.147 1.46819 59.1938 1.40965 59.264 1.37062C59.3343 1.32379 59.4436 1.30038 59.5919 1.30038C59.7402 1.30038 59.8533 1.32379 59.9314 1.37062C60.0094 1.40965 60.0602 1.46819 60.0836 1.54624C60.107 1.61649 60.1187 1.70624 60.1187 1.81552V7.00205C60.1187 7.20498 60.1343 7.36889 60.1655 7.49377C60.2046 7.61085 60.2592 7.70061 60.3294 7.76305C60.4075 7.82549 60.509 7.86452 60.6338 7.88013C60.7587 7.89574 60.9109 7.90355 61.0905 7.90355C61.2153 7.90355 61.3168 7.91525 61.3949 7.93867C61.4729 7.96208 61.5314 8.00891 61.5705 8.07916C61.6095 8.14941 61.629 8.25478 61.629 8.39527C61.629 8.54357 61.6056 8.65674 61.5588 8.7348C61.5197 8.80504 61.4573 8.84797 61.3714 8.86358C61.2934 8.887 61.2036 8.8987 61.1022 8.8987ZM58.4796 3.36094L59.6036 3.37265L61.2309 3.34923C61.3402 3.34923 61.4339 3.36094 61.5119 3.38435C61.59 3.39997 61.6485 3.4468 61.6875 3.52485C61.7344 3.59509 61.7578 3.70437 61.7578 3.85266C61.7578 4.00096 61.7383 4.11414 61.6993 4.19219C61.6602 4.26244 61.6017 4.30927 61.5236 4.33268C61.4456 4.3561 61.3519 4.36781 61.2426 4.36781L59.6387 4.34439L58.4562 4.3561C58.2923 4.3561 58.1791 4.31707 58.1167 4.23902C58.062 4.16097 58.0347 4.03218 58.0347 3.85266C58.0347 3.68095 58.0698 3.55607 58.1401 3.47802C58.2103 3.39997 58.3235 3.36094 58.4796 3.36094Z" fill="black"/>
<path d="M68.2425 9.01578C67.9459 9.01578 67.6649 8.98066 67.3996 8.91041C67.142 8.84017 66.9039 8.7465 66.6854 8.62943C66.4746 8.50454 66.2873 8.36795 66.1234 8.21966C65.9595 8.07136 65.8307 7.92306 65.7371 7.77476C65.6512 7.64988 65.5966 7.54841 65.5731 7.47036C65.5497 7.3845 65.5536 7.30255 65.5849 7.2245C65.6239 7.14645 65.698 7.06059 65.8073 6.96693C65.9322 6.87326 66.0415 6.83034 66.1351 6.83814C66.2288 6.83814 66.3146 6.87326 66.3927 6.94351C66.4785 7.01376 66.5644 7.10742 66.6503 7.2245C66.8454 7.48987 67.0834 7.685 67.3644 7.80988C67.6454 7.92696 67.9225 7.9855 68.1957 7.9855C68.5469 7.9855 68.8591 7.93867 69.1323 7.84501C69.4055 7.75135 69.6201 7.61085 69.7762 7.42353C69.9401 7.2284 70.0221 6.97863 70.0221 6.67423C70.0221 6.42447 69.9596 6.21373 69.8348 6.04201C69.7099 5.8703 69.5421 5.7259 69.3313 5.60883C69.1206 5.48394 68.8864 5.37857 68.6289 5.29272C68.3713 5.19906 68.1098 5.1093 67.8444 5.02344C67.6337 4.95319 67.4269 4.87514 67.2239 4.78928C67.021 4.69562 66.8298 4.59416 66.6503 4.48488C66.4707 4.36781 66.3107 4.23122 66.1702 4.07511C66.0375 3.91901 65.9322 3.73559 65.8541 3.52485C65.7839 3.31411 65.7488 3.06825 65.7488 2.78726C65.7488 2.35798 65.8502 1.97943 66.0532 1.65161C66.2639 1.32379 66.5566 1.07012 66.9312 0.890605C67.3059 0.703281 67.7391 0.609619 68.2308 0.609619C68.5196 0.609619 68.785 0.636937 69.0269 0.691573C69.2689 0.74621 69.4835 0.820359 69.6709 0.91402C69.8582 0.999877 70.0182 1.09354 70.1509 1.19501C70.2836 1.28867 70.385 1.37843 70.4553 1.46428C70.5958 1.61258 70.6738 1.73747 70.6894 1.83893C70.705 1.9404 70.6465 2.06528 70.5138 2.21358C70.3889 2.35407 70.268 2.42822 70.1509 2.43603C70.0338 2.44383 69.905 2.3892 69.7645 2.27212C69.6162 2.10041 69.4601 1.96772 69.2962 1.87406C69.1401 1.78039 68.9723 1.71795 68.7928 1.68673C68.6211 1.64771 68.4298 1.62819 68.2191 1.62819C68.0162 1.62819 67.8249 1.65551 67.6454 1.71015C67.4737 1.75698 67.3215 1.83113 67.1888 1.93259C67.0639 2.03406 66.9664 2.15894 66.8961 2.30724C66.8259 2.44774 66.7907 2.61164 66.7907 2.79897C66.7907 3.00971 66.8454 3.18923 66.9547 3.33752C67.0717 3.48582 67.2239 3.61461 67.4113 3.72388C67.5986 3.82535 67.8093 3.91901 68.0435 4.00487C68.2776 4.08292 68.5235 4.16097 68.7811 4.23902C69.062 4.32488 69.3391 4.43025 69.6123 4.55513C69.8855 4.67221 70.1314 4.82051 70.3499 5.00002C70.5685 5.17174 70.7441 5.39028 70.8768 5.65566C71.0094 5.92103 71.0758 6.24885 71.0758 6.63911C71.0758 7.02937 70.9977 7.37279 70.8416 7.66939C70.6933 7.96599 70.4865 8.21575 70.2211 8.41869C69.9557 8.61382 69.6513 8.76211 69.3079 8.86358C68.9723 8.96505 68.6172 9.01578 68.2425 9.01578Z" fill="black"/>
<path d="M74.5379 8.91041C74.1945 8.91041 73.8745 8.84797 73.5779 8.72309C73.2891 8.59821 73.0354 8.42259 72.8169 8.19624C72.5983 7.96989 72.4266 7.69671 72.3017 7.3767C72.1846 7.05669 72.1261 6.69374 72.1261 6.28788V3.7473C72.1261 3.63802 72.1378 3.54436 72.1612 3.46631C72.1846 3.38826 72.2315 3.32972 72.3017 3.29069C72.3798 3.24386 72.4929 3.22045 72.6412 3.22045C72.7895 3.22045 72.8988 3.24386 72.9691 3.29069C73.0471 3.33752 73.0978 3.39997 73.1213 3.47802C73.1447 3.55607 73.1564 3.64973 73.1564 3.759V6.29958C73.1564 6.6196 73.211 6.90448 73.3203 7.15425C73.4296 7.39621 73.5935 7.58353 73.812 7.71622C74.0384 7.84891 74.3115 7.91525 74.6316 7.91525C74.9594 7.91525 75.2404 7.84891 75.4745 7.71622C75.7165 7.58353 75.8999 7.39621 76.0248 7.15425C76.1575 6.90448 76.2238 6.6196 76.2238 6.29958V3.7473C76.2238 3.63802 76.2355 3.54436 76.2589 3.46631C76.2823 3.38826 76.3292 3.32972 76.3994 3.29069C76.4775 3.24386 76.5907 3.22045 76.739 3.22045C76.8873 3.22045 76.9965 3.24386 77.0668 3.29069C77.1448 3.33752 77.1917 3.39997 77.2073 3.47802C77.2307 3.55607 77.2424 3.64973 77.2424 3.759V8.40698C77.2424 8.50064 77.2307 8.5865 77.2073 8.66455C77.1917 8.7348 77.1448 8.78943 77.0668 8.82846C76.9965 8.86748 76.8873 8.887 76.739 8.887C76.6297 8.887 76.5399 8.87529 76.4697 8.85187C76.4072 8.82846 76.3604 8.79724 76.3292 8.75821C76.298 8.71918 76.2745 8.67626 76.2589 8.62943C76.2511 8.57479 76.2472 8.52015 76.2472 8.46552L76.2941 7.96208C76.216 8.05575 76.1224 8.15721 76.0131 8.26649C75.9038 8.37576 75.775 8.48113 75.6267 8.58259C75.4862 8.67626 75.3262 8.75431 75.1467 8.81675C74.9672 8.87919 74.7642 8.91041 74.5379 8.91041Z" fill="black"/>
<path d="M81.5154 8.85187C81.1329 8.85187 80.7856 8.78163 80.4734 8.64113C80.1611 8.50064 79.8958 8.30551 79.6772 8.05575C79.4587 7.79818 79.287 7.49768 79.1621 7.15425C79.045 6.81082 78.9904 6.43227 78.9982 6.0186C78.9982 5.61273 79.0567 5.23808 79.1738 4.89465C79.2909 4.55123 79.4587 4.25463 79.6772 4.00487C79.9036 3.7473 80.169 3.55217 80.4734 3.41948C80.7856 3.27899 81.1329 3.20874 81.5154 3.20874C81.8744 3.20874 82.21 3.27899 82.5222 3.41948C82.8422 3.55997 83.1193 3.759 83.3535 4.01657C83.5954 4.26634 83.7827 4.56684 83.9154 4.91807C84.0559 5.2693 84.1262 5.64785 84.1262 6.05372C84.1262 6.45959 84.0559 6.83424 83.9154 7.17767C83.7827 7.52109 83.5954 7.81769 83.3535 8.06745C83.1193 8.31722 82.8422 8.51235 82.5222 8.65284C82.21 8.78553 81.8744 8.85187 81.5154 8.85187ZM79.0801 11.2051C78.9318 11.2051 78.8187 11.1817 78.7406 11.1349C78.6704 11.0959 78.6196 11.0373 78.5884 10.9593C78.565 10.8812 78.5533 10.7876 78.5533 10.6783V3.759C78.5533 3.64973 78.565 3.55607 78.5884 3.47802C78.6118 3.39997 78.6587 3.34143 78.7289 3.3024C78.807 3.25557 78.9201 3.23215 79.0684 3.23215C79.2401 3.23215 79.365 3.25947 79.4431 3.31411C79.5289 3.36874 79.5797 3.46631 79.5953 3.6068V10.6666C79.6031 10.7758 79.5953 10.8695 79.5719 10.9476C79.5484 11.0334 79.4977 11.0959 79.4197 11.1349C79.3494 11.1817 79.2362 11.2051 79.0801 11.2051ZM81.3632 7.89184C81.691 7.89184 81.9876 7.81379 82.2529 7.65768C82.5183 7.49377 82.7252 7.27133 82.8735 6.99034C83.0296 6.70936 83.1076 6.38934 83.1076 6.03031C83.1076 5.66346 83.0296 5.34345 82.8735 5.07027C82.7252 4.79709 82.5183 4.58635 82.2529 4.43805C81.9954 4.28195 81.6988 4.2039 81.3632 4.2039C81.0353 4.2039 80.7387 4.28195 80.4734 4.43805C80.2158 4.59416 80.009 4.8088 79.8529 5.08198C79.7046 5.35516 79.6304 5.67127 79.6304 6.03031C79.6304 6.38934 79.7046 6.70936 79.8529 6.99034C80.009 7.27133 80.2158 7.49377 80.4734 7.65768C80.7387 7.81379 81.0353 7.89184 81.3632 7.89184Z" fill="black"/>
<path d="M88.0391 8.95724C87.5708 8.95724 87.1532 8.87919 86.7864 8.72309C86.4195 8.56699 86.1073 8.35625 85.8498 8.09087C85.6 7.81769 85.4088 7.50548 85.2761 7.15425C85.1434 6.80302 85.0771 6.42447 85.0771 6.0186C85.0771 5.48004 85.2019 5.00002 85.4517 4.57855C85.7015 4.15707 86.0449 3.82535 86.482 3.58339C86.9269 3.33362 87.4342 3.20874 88.004 3.20874C88.3943 3.20874 88.7416 3.27118 89.046 3.39606C89.3582 3.51314 89.6236 3.67315 89.8421 3.87608C90.0607 4.07901 90.2285 4.30536 90.3455 4.55513C90.4626 4.80489 90.5212 5.05466 90.5212 5.30443C90.5212 5.70249 90.4275 5.98348 90.2402 6.14738C90.0528 6.30349 89.8226 6.38154 89.5494 6.38154H86.1659C86.1581 6.72497 86.2478 7.02156 86.4352 7.27133C86.6303 7.51329 86.8722 7.70061 87.161 7.8333C87.4576 7.96599 87.7542 8.03233 88.0508 8.03233C88.2694 8.03233 88.4567 8.02062 88.6128 7.99721C88.7689 7.97379 88.9055 7.94257 89.0226 7.90355C89.1396 7.86452 89.2411 7.82549 89.327 7.78647C89.4128 7.74744 89.487 7.70842 89.5494 7.66939C89.6197 7.63036 89.686 7.60305 89.7485 7.58744C89.8187 7.57183 89.885 7.57963 89.9475 7.61085C90.0177 7.63427 90.0724 7.685 90.1114 7.76305C90.1582 7.82549 90.1894 7.88403 90.2051 7.93867C90.2207 7.99331 90.2285 8.05184 90.2285 8.11429C90.2285 8.22356 90.1348 8.34454 89.9475 8.47723C89.7602 8.60991 89.4987 8.72309 89.1631 8.81675C88.8352 8.91041 88.4606 8.95724 88.0391 8.95724ZM86.1659 5.69078H89.1045C89.2528 5.69078 89.3621 5.67127 89.4323 5.63224C89.5104 5.59322 89.5494 5.48785 89.5494 5.31613C89.5494 5.09759 89.4831 4.90246 89.3504 4.73075C89.2177 4.55123 89.0343 4.40683 88.8001 4.29756C88.5738 4.18829 88.3123 4.13365 88.0157 4.13365C87.6723 4.13365 87.3562 4.2039 87.0674 4.34439C86.7864 4.47708 86.5639 4.6605 86.4 4.89465C86.2361 5.12881 86.1581 5.39419 86.1659 5.69078Z" fill="black"/>
<path d="M92.2075 8.8987C92.0592 8.8987 91.9461 8.87529 91.868 8.82846C91.7978 8.78943 91.7509 8.73089 91.7275 8.65284C91.7119 8.56698 91.7041 8.46942 91.7041 8.36015V3.7473C91.7041 3.63022 91.7158 3.53265 91.7392 3.4546C91.7626 3.37655 91.8095 3.32191 91.8797 3.29069C91.95 3.25167 92.0631 3.23215 92.2192 3.23215C92.3597 3.23215 92.4651 3.25167 92.5354 3.29069C92.6134 3.32191 92.6641 3.37265 92.6876 3.44289C92.7188 3.50534 92.7344 3.57948 92.7344 3.66534L92.6876 4.01657C92.7422 3.91511 92.8046 3.81364 92.8749 3.71217C92.9529 3.6107 93.0466 3.52095 93.1559 3.44289C93.2729 3.35704 93.4095 3.28679 93.5656 3.23215C93.7295 3.17752 93.9286 3.1502 94.1627 3.1502C94.2798 3.1502 94.3891 3.16191 94.4905 3.18532C94.5998 3.20093 94.7013 3.22825 94.795 3.26728C94.8964 3.3063 94.9823 3.35313 95.0525 3.40777C95.1228 3.4546 95.1774 3.50924 95.2164 3.57168C95.2633 3.62632 95.2867 3.69266 95.2867 3.77071C95.2867 3.94242 95.232 4.09072 95.1228 4.21561C95.0135 4.33268 94.9003 4.39122 94.7832 4.39122C94.6818 4.39122 94.6076 4.37951 94.5608 4.3561C94.514 4.32488 94.4671 4.29366 94.4203 4.26244C94.3813 4.23122 94.3227 4.2039 94.2447 4.18048C94.1666 4.14926 94.0418 4.13365 93.87 4.13365C93.753 4.13365 93.6281 4.15707 93.4954 4.2039C93.3705 4.25073 93.2495 4.32097 93.1325 4.41464C93.0154 4.50049 92.9178 4.61367 92.8398 4.75416C92.7695 4.89465 92.7344 5.05856 92.7344 5.24589V8.38356C92.7344 8.49284 92.7227 8.5865 92.6993 8.66455C92.6758 8.7426 92.6251 8.80114 92.5471 8.84017C92.4768 8.87919 92.3636 8.8987 92.2075 8.8987Z" fill="black"/>
<path d="M96.9521 8.8987C96.8038 8.8987 96.6945 8.87529 96.6243 8.82846C96.554 8.78163 96.5072 8.71918 96.4838 8.64113C96.4604 8.56308 96.4487 8.46942 96.4487 8.36015V3.72388C96.4487 3.61461 96.4604 3.52485 96.4838 3.4546C96.5072 3.38436 96.554 3.32972 96.6243 3.29069C96.7023 3.25167 96.8155 3.23215 96.9638 3.23215C97.1355 3.23215 97.2565 3.26728 97.3268 3.33752C97.4048 3.39997 97.4438 3.51314 97.4438 3.67705L97.397 4.18048C97.4516 4.0634 97.5336 3.94633 97.6429 3.82925C97.7521 3.71217 97.8809 3.6068 98.0292 3.51314C98.1853 3.41948 98.3492 3.34533 98.5209 3.29069C98.6927 3.23606 98.8683 3.20874 99.0478 3.20874C99.321 3.20874 99.5629 3.25947 99.7737 3.36094C99.9922 3.4546 100.187 3.59119 100.359 3.77071C100.531 3.95023 100.675 4.17268 100.792 4.43805C100.948 4.18048 101.112 3.96194 101.284 3.78242C101.463 3.59509 101.666 3.4546 101.893 3.36094C102.119 3.25947 102.373 3.20874 102.654 3.20874C103.099 3.20874 103.469 3.32191 103.766 3.54826C104.07 3.76681 104.297 4.07901 104.445 4.48488C104.601 4.88295 104.679 5.36296 104.679 5.92494V8.37186C104.679 8.48113 104.668 8.57479 104.644 8.65284C104.628 8.73089 104.582 8.78943 104.504 8.82846C104.433 8.87529 104.32 8.8987 104.164 8.8987C104.016 8.8987 103.903 8.87529 103.825 8.82846C103.754 8.78163 103.707 8.71918 103.684 8.64113C103.661 8.56308 103.649 8.46942 103.649 8.36015V5.91323C103.649 5.562 103.606 5.2615 103.52 5.01173C103.442 4.75416 103.317 4.55513 103.146 4.41464C102.982 4.27414 102.767 4.2039 102.502 4.2039C102.221 4.2039 101.971 4.27414 101.752 4.41464C101.542 4.54732 101.378 4.74245 101.261 5.00002C101.143 5.25759 101.085 5.562 101.085 5.91323V8.38356C101.085 8.50064 101.062 8.60211 101.015 8.68796C100.968 8.77382 100.898 8.83236 100.804 8.86358C100.71 8.90261 100.597 8.91041 100.464 8.887C100.34 8.87139 100.246 8.84017 100.183 8.79333C100.121 8.7465 100.082 8.68797 100.066 8.61772C100.051 8.53967 100.043 8.45381 100.043 8.36015V5.91323C100.043 5.562 100 5.2615 99.9142 5.01173C99.8361 4.75416 99.7112 4.55513 99.5395 4.41464C99.3756 4.27414 99.161 4.2039 98.8956 4.2039C98.6146 4.2039 98.3648 4.27805 98.1463 4.42634C97.9356 4.56684 97.7717 4.76587 97.6546 5.02344C97.5375 5.28101 97.479 5.57761 97.479 5.91323V8.37186C97.479 8.48113 97.4672 8.57479 97.4438 8.65284C97.4204 8.73089 97.3697 8.78943 97.2916 8.82846C97.2214 8.87529 97.1082 8.8987 96.9521 8.8987Z" fill="black"/>
<path d="M110.945 8.887C110.773 8.887 110.648 8.85187 110.57 8.78163C110.5 8.71138 110.457 8.60211 110.441 8.45381L110.488 7.86842C110.41 7.99331 110.289 8.1377 110.125 8.30161C109.961 8.45771 109.747 8.59821 109.481 8.72309C109.216 8.84017 108.892 8.8987 108.51 8.8987C108.135 8.8987 107.784 8.82456 107.456 8.67626C107.136 8.52796 106.851 8.32112 106.601 8.05575C106.359 7.79037 106.168 7.48597 106.028 7.14254C105.895 6.79911 105.829 6.43227 105.829 6.04201C105.829 5.65956 105.895 5.30052 106.028 4.9649C106.168 4.62147 106.363 4.32097 106.613 4.0634C106.863 3.80583 107.148 3.6029 107.468 3.4546C107.795 3.3063 108.143 3.23215 108.51 3.23215C108.853 3.23215 109.146 3.27899 109.388 3.37265C109.63 3.4585 109.837 3.57558 110.008 3.72388C110.188 3.86437 110.344 4.02438 110.477 4.2039L110.453 3.71217C110.445 3.54046 110.48 3.41948 110.559 3.34923C110.644 3.27118 110.777 3.23215 110.957 3.23215C111.105 3.23215 111.21 3.25557 111.273 3.3024C111.343 3.34923 111.39 3.41558 111.413 3.50143C111.437 3.58729 111.448 3.69266 111.448 3.81754V8.33673C111.448 8.446 111.437 8.54357 111.413 8.62943C111.39 8.71528 111.343 8.77772 111.273 8.81675C111.202 8.86358 111.093 8.887 110.945 8.887ZM108.685 7.91525C108.997 7.91525 109.282 7.8333 109.54 7.66939C109.805 7.50548 110.012 7.28694 110.16 7.01376C110.317 6.73277 110.395 6.41276 110.395 6.05372C110.395 5.68688 110.313 5.36687 110.149 5.09369C109.993 4.8127 109.782 4.59416 109.517 4.43805C109.259 4.27414 108.974 4.19219 108.662 4.19219C108.295 4.19219 107.975 4.27805 107.702 4.44976C107.436 4.61367 107.226 4.83612 107.07 5.1171C106.913 5.39809 106.835 5.7181 106.835 6.07714C106.835 6.42837 106.913 6.74448 107.07 7.02547C107.226 7.29865 107.44 7.51719 107.714 7.6811C107.995 7.8372 108.318 7.91525 108.685 7.91525Z" fill="black"/>
<path d="M113.359 8.8987C113.211 8.8987 113.098 8.87529 113.02 8.82846C112.949 8.78943 112.903 8.73089 112.879 8.65284C112.864 8.56698 112.856 8.46942 112.856 8.36015V3.7473C112.856 3.63022 112.868 3.53265 112.891 3.4546C112.914 3.37655 112.961 3.32191 113.031 3.29069C113.102 3.25167 113.215 3.23215 113.371 3.23215C113.511 3.23215 113.617 3.25167 113.687 3.29069C113.765 3.32191 113.816 3.37265 113.839 3.44289C113.87 3.50534 113.886 3.57948 113.886 3.66534L113.839 4.01657C113.894 3.91511 113.956 3.81364 114.027 3.71217C114.105 3.6107 114.198 3.52095 114.308 3.44289C114.425 3.35704 114.561 3.28679 114.717 3.23215C114.881 3.17752 115.08 3.1502 115.314 3.1502C115.432 3.1502 115.541 3.16191 115.642 3.18532C115.752 3.20093 115.853 3.22825 115.947 3.26728C116.048 3.3063 116.134 3.35313 116.204 3.40777C116.274 3.4546 116.329 3.50924 116.368 3.57168C116.415 3.62632 116.438 3.69266 116.438 3.77071C116.438 3.94242 116.384 4.09072 116.274 4.21561C116.165 4.33268 116.052 4.39122 115.935 4.39122C115.833 4.39122 115.759 4.37951 115.712 4.3561C115.666 4.32488 115.619 4.29366 115.572 4.26244C115.533 4.23122 115.474 4.2039 115.396 4.18048C115.318 4.14926 115.193 4.13365 115.022 4.13365C114.905 4.13365 114.78 4.15707 114.647 4.2039C114.522 4.25073 114.401 4.32097 114.284 4.41464C114.167 4.50049 114.069 4.61367 113.991 4.75416C113.921 4.89465 113.886 5.05856 113.886 5.24589V8.38356C113.886 8.49284 113.874 8.5865 113.851 8.66455C113.828 8.7426 113.777 8.80114 113.699 8.84017C113.629 8.87919 113.515 8.8987 113.359 8.8987Z" fill="black"/>
<path d="M121.956 7.9855C122.104 8.10258 122.182 8.21575 122.19 8.32502C122.205 8.4343 122.151 8.56308 122.026 8.71138C121.932 8.82065 121.846 8.8909 121.768 8.92212C121.698 8.96115 121.624 8.96505 121.546 8.93383C121.468 8.91041 121.378 8.85578 121.277 8.76992L118.631 6.61569V8.37186C118.631 8.48113 118.615 8.57479 118.584 8.65284C118.56 8.73089 118.514 8.78943 118.443 8.82846C118.373 8.87529 118.26 8.8987 118.104 8.8987C117.963 8.8987 117.854 8.87529 117.776 8.82846C117.698 8.78943 117.647 8.73089 117.624 8.65284C117.608 8.56698 117.6 8.46942 117.6 8.36015V1.13647C117.6 1.02719 117.612 0.933533 117.635 0.855482C117.659 0.77743 117.71 0.718891 117.788 0.679866C117.866 0.633035 117.975 0.609619 118.116 0.609619C118.272 0.609619 118.385 0.633035 118.455 0.679866C118.525 0.718891 118.572 0.781333 118.596 0.867189C118.619 0.945241 118.631 1.0389 118.631 1.14818V5.29272L120.562 3.44289C120.648 3.35704 120.73 3.2985 120.808 3.26728C120.894 3.22825 120.976 3.22045 121.054 3.24386C121.14 3.26728 121.226 3.32972 121.312 3.43119C121.452 3.58729 121.519 3.71998 121.511 3.82925C121.511 3.93072 121.44 4.04779 121.3 4.18048L119.403 5.97177L121.956 7.9855Z" fill="black"/>
<path d="M125.643 8.95724C125.175 8.95724 124.758 8.87919 124.391 8.72309C124.024 8.56699 123.712 8.35625 123.454 8.09087C123.204 7.81769 123.013 7.50548 122.88 7.15425C122.748 6.80302 122.681 6.42447 122.681 6.0186C122.681 5.48004 122.806 5.00002 123.056 4.57855C123.306 4.15707 123.649 3.82535 124.086 3.58339C124.531 3.33362 125.038 3.20874 125.608 3.20874C125.999 3.20874 126.346 3.27118 126.65 3.39606C126.962 3.51314 127.228 3.67315 127.446 3.87608C127.665 4.07901 127.833 4.30536 127.95 4.55513C128.067 4.80489 128.125 5.05466 128.125 5.30443C128.125 5.70249 128.032 5.98348 127.844 6.14738C127.657 6.30349 127.427 6.38154 127.154 6.38154H123.77C123.762 6.72497 123.852 7.02156 124.039 7.27133C124.235 7.51329 124.477 7.70061 124.765 7.8333C125.062 7.96599 125.359 8.03233 125.655 8.03233C125.874 8.03233 126.061 8.02062 126.217 7.99721C126.373 7.97379 126.51 7.94257 126.627 7.90355C126.744 7.86452 126.845 7.82549 126.931 7.78647C127.017 7.74744 127.091 7.70842 127.154 7.66939C127.224 7.63036 127.29 7.60305 127.353 7.58744C127.423 7.57183 127.489 7.57963 127.552 7.61085C127.622 7.63427 127.677 7.685 127.716 7.76305C127.762 7.82549 127.794 7.88403 127.809 7.93867C127.825 7.99331 127.833 8.05184 127.833 8.11429C127.833 8.22356 127.739 8.34454 127.552 8.47723C127.364 8.60991 127.103 8.72309 126.767 8.81675C126.44 8.91041 126.065 8.95724 125.643 8.95724ZM123.77 5.69078H126.709C126.857 5.69078 126.966 5.67127 127.037 5.63224C127.115 5.59322 127.154 5.48785 127.154 5.31613C127.154 5.09759 127.087 4.90246 126.955 4.73075C126.822 4.55123 126.639 4.40683 126.404 4.29756C126.178 4.18829 125.917 4.13365 125.62 4.13365C125.277 4.13365 124.96 4.2039 124.672 4.34439C124.391 4.47708 124.168 4.6605 124.004 4.89465C123.84 5.12881 123.762 5.39419 123.77 5.69078Z" fill="black"/>
<path d="M131.852 8.8987C131.485 8.8987 131.173 8.86358 130.915 8.79333C130.665 8.72309 130.458 8.61382 130.295 8.46552C130.131 8.31722 130.014 8.12599 129.943 7.89184C129.873 7.64988 129.838 7.35328 129.838 7.00205V1.82722C129.838 1.71795 129.85 1.62429 129.873 1.54624C129.897 1.46819 129.943 1.40965 130.014 1.37062C130.084 1.32379 130.193 1.30038 130.341 1.30038C130.49 1.30038 130.603 1.32379 130.681 1.37062C130.759 1.40965 130.81 1.46819 130.833 1.54624C130.857 1.61649 130.868 1.70624 130.868 1.81552V7.00205C130.868 7.20498 130.884 7.36889 130.915 7.49377C130.954 7.61085 131.009 7.70061 131.079 7.76305C131.157 7.82549 131.259 7.86452 131.383 7.88013C131.508 7.89574 131.66 7.90355 131.84 7.90355C131.965 7.90355 132.066 7.91525 132.144 7.93867C132.222 7.96208 132.281 8.00891 132.32 8.07916C132.359 8.14941 132.379 8.25478 132.379 8.39527C132.379 8.54357 132.355 8.65674 132.308 8.7348C132.269 8.80504 132.207 8.84797 132.121 8.86358C132.043 8.887 131.953 8.8987 131.852 8.8987ZM129.229 3.36094L130.353 3.37265L131.98 3.34923C132.09 3.34923 132.183 3.36094 132.261 3.38435C132.34 3.39997 132.398 3.4468 132.437 3.52485C132.484 3.59509 132.507 3.70437 132.507 3.85266C132.507 4.00096 132.488 4.11414 132.449 4.19219C132.41 4.26244 132.351 4.30927 132.273 4.33268C132.195 4.3561 132.101 4.36781 131.992 4.36781L130.388 4.34439L129.206 4.3561C129.042 4.3561 128.929 4.31707 128.866 4.23902C128.812 4.16097 128.784 4.03218 128.784 3.85266C128.784 3.68095 128.819 3.55607 128.89 3.47802C128.96 3.39997 129.073 3.36094 129.229 3.36094Z" fill="black"/>
</svg>
